<svg xmlns="http://www.w3.org/2000/svg" xmlns:xlink="http://www.w3.org/1999/xlink" viewBox="0 0 270 100"><defs><style>.cls-1{fill:none;}.cls-2{isolation:isolate;}.cls-3{fill:#f26531;}.cls-4{fill:#fff;}.cls-5{clip-path:url(#clip-path);}.cls-6{mix-blend-mode:multiply;opacity:0.5;fill:url(#linear-gradient);}.cls-7{fill:#f06432;}</style><clipPath id="clip-path"><rect class="cls-1" x="54.5" y="11.91" width="161" height="84.17"/></clipPath><linearGradient id="linear-gradient" x1="134.97" y1="92.68" x2="134.97" y2="57.78" gradientUnits="userSpaceOnUse"><stop offset="0" stop-opacity="0"/><stop offset="0.85" stop-opacity="0.51"/><stop offset="1"/></linearGradient></defs><g class="cls-2"><g id="Layer_2" data-name="Layer 2"><g id="Base"><polygon class="cls-3" points="0 0 0 35 134.8 62.7 270 35 270 0 0 0"/><polygon class="cls-4" points="0 35 0 100 270 100 270 35 134.8 62.7 0 35"/><g class="cls-5"><polygon class="cls-6" points="182.85 92.68 87.33 92.68 81.73 59.8 82.4 59.66 82.21 58.79 86.81 57.78 135.09 69 184.4 57.95 187.73 58.79 187.67 59.69 188.21 59.8 182.85 92.68"/><path class="cls-4" d="M112.44,57.72l3.79-2.49a18,18,0,0,1-7.74.26,26.79,26.79,0,0,1-7.61-3,44.06,44.06,0,0,0-5.32-2.58c-4.43-1.81-7.53-.85-8.66-.35a3,3,0,0,0-1.48,1.08c-.29.78-2.46,6.35-3.21,8.16A14.86,14.86,0,0,1,86,58.28,16.33,16.33,0,0,1,93,59.89c2,.93,3.79,1.83,5.38,2.63,3,1.51,5.33,2.7,7.08,3a20.85,20.85,0,0,0,6.19.21c0-.58.22-6.72.23-7A1.43,1.43,0,0,1,112.44,57.72Z"/><path class="cls-4" d="M103,21.53l.22.55,0,0a.05.05,0,0,0,0,0l0,0,0,0,.64-.26h0l0,0,.19-.08h0l0,0,0,0s0,0,0,0,0,0,0,0,0,0,0,.05l0,.05,0,0s0,0,0,.05l.1.23,0,0a.11.11,0,0,1,0,.05l0,.05,0,0,0,.05s0,0,0,0l0,0s0,0,0,.05l0,0,0,.05,0,.09,0,0,0,.05s0,0,0,0l0,0s0,0,0,0l0,0,0,.05s0,0,0,0l.14.32s0,0,0,0,0,0,0,.05l0,0,.06.14s0,0,0,.05l0,0a.11.11,0,0,1,0,.05l0,.05,0,0,0,.05s0,0,0,.05l0,0s0,0,0,.05l0,.14,0,0s0,0,0,.05l0,0s0,0,0,.05,0,0,0,.05l0,.09,0,0s0,0,0,.05l0,0s0,0,0,.05l0,0,0,.1a.06.06,0,0,0,0,0l0,.05.06.13s0,0,0,.05l0,.1s0,0,0,0l0,0h0s0,0,0,0l.37-.15,0,0h0l.18-.07,0,0s0,0,0,0,0,0,0-.05a.43.43,0,0,1,0,0l0,0s0,0,0,0l0,0-.06-.14a.09.09,0,0,0,0,0l0,0-.1-.23s0,0,0-.05,0,0,0,0l-.08-.19s0,0,0-.05l0,0-.11-.27s0,0,0-.05,0,0,0-.05l-.09-.23s0,0,0,0,0,0,0-.05l0-.09s0,0,0-.05l0,0v-.05l0-.05s0,0,0,0l-.06-.14s0,0,0,0,0,0,0,0l0-.09a.09.09,0,0,1,0,0l0-.09,0,0,0-.09s0,0,0-.05l0,0,0,0s0,0,0,0l0,0-.11-.28a.09.09,0,0,1,0-.05l0,0s0,0,0-.05l0-.09s0,0,0,0v-.05l0-.05,0,0,0-.05a0,0,0,0,1,0-.05s0,0,0,0,0,0,0-.05,0,0,0,0h0l.51-.21,0,0H106l.13-.06h0s0,0,0,0l0,0,0,0a.05.05,0,0,0,0,0l0-.05,0,0-.15-.36s0,0,0-.05l0,0,0,0s0,0,0-.05l0,0,0,0,0,0H106l-2.92,1.2s0,0,0,0l0,0v.05a.07.07,0,0,0,0,.05Z"/><path class="cls-4" d="M107.9,19.59v.05l0,0,0,.15s0,0,0,.05l0,0s0,0,0,0l.09.28s0,0,0,.05,0,0,0,0l0,.1s0,0,0,0l0,0,.1.33s0,0,0,.05,0,0,0,.05l0,.09v.05l0,0,.11.33v.05s0,0,0,.05,0,0,0,.05l0,0,.17.52s0,0,0,.05v.05l0,0v.05s0,0,0,.05v0s0,0,0,.05l0,0,0,.14s0,0,0,.05,0,0,0,0,0,0,0,.05l0,.05.16.47v.05l0,0,.09.28s0,0,0,.05l0,0s0,0,0,.05l0,0,0,.1,0,0,0,0a0,0,0,0,0,0,0h.05l0,0h0l0,0,.53-.17,0,0,0,0a.09.09,0,0,0,0-.05v-.05l0-.09s0,0,0-.05,0,0,0,0,0,0,0,0l0-.1s0,0,0-.05l0-.05s0,0,0-.05,0,0,0,0l0-.09,0,0s0,0,0,0l0-.05s0,0,0-.05l-.06-.19,0,0a.15.15,0,0,0,0-.06s0,0,0,0,0,0,0,0,0,0,0-.05,0,0,0-.05v0s0,0,0-.05v-.05s0,0,0-.05l0,0s0,0,0-.05,0,0,0,0l0,0,0,0,0,0h0l.42-.13h.08l0,0,0,0,0,0,0,0,0,0,0,0,0,0,0,0,0,.05,0,0,0,0,0,0,0,0,0,0,0,0,0,0s0,0,0,0,0,0,0,0,0,0,0,0l0,0s0,0,0,0l0,0s0,0,0,0l0,0,0,0s0,0,0,0,0,0,0,0l0,0,0,0,0,0,0,0,0,0,0,0,0,0s0,0,0,0l0,0,0,0,0,0,0,0,0,0,0,0,0,0,0,0,.14-.05h0l0,0,.37-.12h.05l0,0,.09,0,0,0,0,0s0,0,0,0,0,0,0,0,0,0,0-.05l0,0,0,0,0,0,0,0,0,0,0,0,0,0,0,0,0,0,0,0,0,0,0,0,0,0,0,0,0,0,0,0s0,0,0,0l0,0s0,0,0,0l0,0,0,0,0,0,0,0,0,0,0,0,0,0s0,0,0,0l0,0,0,0,0,0s0,0,0,0l0,0,0,0,0,0,0,0,0,0,0,0,0-.05,0,0a.05.05,0,0,1,0,0l0-.05v-.05l0,0,0,0,0,0,0,0,0,0,0,0s0,0,0,0a.05.05,0,0,1,0-.05,0,0,0,0,1,0,0,.05.05,0,0,1,0,0l0-.05s0,0,0,0l0,0s0,0,0-.05a.09.09,0,0,1,0-.05l0,0a.09.09,0,0,1,0-.05s0,0,0-.05l0-.05s0,0,0,0v-.06s0,0,0,0,0,0,0-.06,0,0,0,0,0,0,0-.05v-.06s0,0,0,0v-.05s0,0,0-.05a0,0,0,0,1,0-.05l0-.05s0,0,0,0,0,0,0-.05,0,0,0-.05l-.08-.23s0,0,0-.05a.08.08,0,0,1,0,0s0,0,0-.05,0,0,0,0a.05.05,0,0,1,0,0s0,0,0,0l0,0a.08.08,0,0,0,0,0l0,0,0,0s0,0,0,0l0,0,0,0s0,0,0,0,0,0,0,0l0,0,0,0,0,0,0,0a.09.09,0,0,0-.05,0l0,0,0,0,0,0H111l0,0,0,0h-.1l0,0h0s0,0-.05,0a0,0,0,0,0,0,0l-.06,0h-.19s0,0,0,0h0l0,0s0,0,0,0H110l-.05,0s0,0,0,0l0,0h0l-.52.17s0,0,0,0h0l0,0s0,0-.05,0h0l-.09,0,0,0h0l-.93.31,0,0s0,0,0,0,0,0,0,0a.43.43,0,0,0,0,.05Zm1.17.41a.05.05,0,0,1,0,0l0,0,1-.32h.11s0,0,.05,0,0,0,0,0h.2l0,0,0,0s0,0,0,0,0,0,0,0l0,0,0,0s0,0,0,0l0,0,0,.05s0,0,0,0,0,0,0,0l0,.05s0,0,0,.05v0s0,0,0,.05,0,0,0,.05v.1a.43.43,0,0,0,0,0,.43.43,0,0,1,0,.05s0,0,0,.05a.06.06,0,0,1,0,.05.05.05,0,0,1,0,0s0,0,0,0l0,0,0,0a.08.08,0,0,1,0,0s0,0,0,0l0,0s0,0,0,0h0l0,0-1,.31h0s0,0,0,0l0,0a.08.08,0,0,1,0-.05l-.05-.14,0,0s0,0,0-.05l0-.05,0,0v-.05s0,0,0-.05v-.05l-.14-.41s0,0,0,0,0,0,0-.05l0-.05a.43.43,0,0,1,0-.05S109.06,20,109.07,20Z"/><path class="cls-4" d="M114,22.59l0,0h.17l.05,0,.52-.13,0,0,0,0a.08.08,0,0,0,0-.05v-.05s0,0,0-.05v0s0,0,0-.05V22s0,0,0-.06,0,0,0-.05,0,0,0,0v-.05s0,0,0-.06,0,0,0-.05v-.15s0,0,0-.05,0,0,0-.05l0-.05,0,0,.09,0,0,0h0l.1,0,0,0h.09l.29-.07s0,0,0,0l.09,0h0l.2,0,0,0,.1,0h0s0,0,.05,0h0s0,0,0,0h.1l.1,0,0,0s0,0,0,0l.1,0h0l0,0a.05.05,0,0,1,0,0l0,0s0,0,0,0l0,0,0,0,0,0s0,0,0,.05,0,0,0,0l0,.05,0,0,.08.13,0,0,0,0s0,0,0,.05l0,0s0,0,0,0,0,0,0,0l0,0,0,0h.1s0,0,0,0,0,0,0,0l.29-.08h.1l0,0,.1,0,0,0,0-.06a.43.43,0,0,1,0,0,.14.14,0,0,0,0-.06l0,0,0,0-.08-.13,0,0,0,0,0,0-.05-.09,0,0,0,0,0,0s0,0,0,0l-.06-.09,0,0,0,0,0,0-.05-.09,0,0-.05-.09,0,0-.06-.09,0,0,0,0s0,0,0-.05,0,0,0,0l0,0s0,0,0,0l0,0s0,0,0,0l0,0-.05-.09,0,0,0,0s0,0,0,0l0,0,0-.05s0,0,0,0,0,0,0,0,0,0,0,0l0,0,0,0s0,0,0-.05l0,0-.05-.09s0,0,0,0l-.06-.09,0,0,0,0,0-.05s0,0,0,0,0,0,0-.05l0,0,0-.09s0,0,0,0l-.06-.08,0,0-.06-.09s0,0,0,0l0-.05,0,0-.08-.14,0,0,0-.05s0,0,0,0l-.06-.09a.15.15,0,0,1,0,0l-.06-.08,0,0s0,0,0,0l0-.05s0,0,0,0,0,0,0,0l0,0,0-.09,0,0-.06-.09,0,0,0,0,0,0-.06-.09,0,0,0-.05,0,0,0,0h0l-.83.21a.05.05,0,0,0,0,0,.08.08,0,0,0,0,0s0,0,0,0v.06s0,0,0,0,0,0,0,.05,0,0,0,.05v.1s0,0,0,.05,0,0,0,.05v.05a.09.09,0,0,0,0,0v.2s0,0,0,0,0,0,0,0,0,0,0,.06,0,0,0,.05v0s0,0,0,.05a.11.11,0,0,0,0,.05v.25s0,0,0,0V19s0,0,0,.06v.29a.11.11,0,0,0,0,.06v0l0,0s0,0,0,.05v.1a.07.07,0,0,1,0,.05v0s0,0,0,.05a.07.07,0,0,0,0,.05s0,0,0,.05,0,0,0,.05v.24s0,0,0,.05,0,0,0,.05v0s0,0,0,.05v.35a.06.06,0,0,1,0,0,.13.13,0,0,1,0,.06V21s0,0,0,.06v0s0,0,0,.05v0a.07.07,0,0,1,0,.05v.15a.07.07,0,0,0,0,0v.05a.07.07,0,0,0,0,.05v.05a.06.06,0,0,1,0,0v.11s0,0,0,0V22a.07.07,0,0,0,0,.05s0,0,0,.05,0,0,0,0v.2a.13.13,0,0,1,0,.06.06.06,0,0,1,0,0v.06s0,0,0,.05Zm1.12-2.36v-.05l0-.06s0,0,0-.05l0,0v-.2a.09.09,0,0,0,0,0v-.2s0,0,0,0l0-.16v-.1s0,0,0-.05l0,0v-.05a.07.07,0,0,1,0-.05V19s0,0,0-.06,0,0,0,0v-.1a.09.09,0,0,1,0-.05v-.1s0,0,0-.05l.05,0h0l0,0,.06.09,0,0,0,.05s0,0,0,0,0,0,0,0l.05.09,0,0a.09.09,0,0,0,0,.05s0,0,0,0l0,0s0,0,0,0l0,0,0,0,0,.05s0,0,0,0l0,0s0,0,0,.05l0,0a.09.09,0,0,0,0,.05s0,0,0,0l0,.05,0,0s0,0,0,.05l0,0s0,0,0,.05,0,0,0,0,0,0,0,0l0,0,0,0a.11.11,0,0,1,0,.06s0,0,0,.05a.11.11,0,0,1,0,.05l-.06,0-.28.07h-.1l-.05,0h-.15l0,0-.34.08s0,0-.05,0,0,0-.06,0,0,0,0,0A.15.15,0,0,1,115.14,20.23Z"/><path class="cls-4" d="M119,16.56l0,.09s0,0,0,.05,0,0,0,.05l0,.15V17s0,0,0,.05,0,0,0,.05,0,0,0,0,0,0,0,.05v.05l0,0,0,.15s0,0,0,.05,0,0,0,0v.05l0,.15s0,0,0,.05,0,0,0,.05l0,.1s0,0,0,0v0s0,0,0,.05v.05l0,.05v.05s0,0,0,0,0,0,0,.05,0,0,0,.05v.05l0,0s0,0,0,.05,0,0,0,.05l0,.2s0,0,0,.05,0,0,0,0v.05s0,0,0,0V19l0,.05v.1s0,0,0,0,0,0,0,.05,0,0,0,.05l0,0v.1s0,0,0,.05,0,0,0,0,0,0,0,.05l0,.1s0,0,0,0v.05s0,0,0,.05l0,.1s0,0,0,.05,0,0,0,.05,0,0,0,.05,0,0,0,0l0,.09s0,0,0,0v.1s0,0,0,.05,0,0,0,.05v.1s0,0,0,0l0,.15v.05s0,0,0,0v.05s0,0,0,.05V21l0,.05v.05s0,0,0,0,0,0,0,.05l0,0,0,0h0l.69-.12h0l0,0s0,0,0-.05a.09.09,0,0,0,0-.05v0s0,0,0-.05,0,0,0-.05v-.05l0,0,0-.15s0,0,0-.05,0,0,0-.05v-.05s0,0,0-.05v0s0,0,0,0,0,0,0,0v-.05l0-.05s0,0,0-.05v-.05s0,0,0,0,0,0,0-.05v-.05l0,0s0,0,0-.05v-.1s0,0,0,0,0,0,0-.05l0-.19s0,0,0-.05,0,0,0-.05l0,0s0,0,0-.05v-.05s0,0,0-.05,0,0,0-.05v0l0-.05V18.9s0,0,0,0,0,0,0-.05v-.05s0,0,0-.05,0,0,0-.05,0,0,0,0v0s0,0,0,0l0-.05s0,0,0-.05v-.05s0,0,0-.05,0,0,0,0v-.05l0-.05s0,0,0-.05v0s0,0,0-.05,0,0,0-.05,0,0,0,0v-.05s0,0,0-.05a.43.43,0,0,0,0-.05s0,0,0,0l0,0s0,0,0,0l0,0,0,0,.07.06,0,0,0,0,0,0,0,0,0,0,0,0s0,0,0,0,0,0,0,0l0,0,0,0,0,0,0,0,.05,0,0,0,0,0,0,0,0,0s0,0,0,0l0,0,.07.06s0,0,0,0l0,0,0,0,0,0,0,0,0,0,0,0s0,0,0,0l0,0,0,0,.08.05,0,0,0,0,.08.06,0,0s0,0,0,0l0,0,.07,0,0,0,.11.08s0,0,0,0l0,0s0,0,0,.05,0,0,0,.05l0,.24s0,0,0,.05,0,0,0,.05v.05l0,.15s0,0,0,0v.15s0,0,0,.05,0,0,0,.05l0,.19s0,0,0,.05,0,0,0,.05,0,0,0,.05v.15a.08.08,0,0,0,0,0l0,0,0,0h0l.54-.09s0,0,0,0,0,0,0,0h0s0,0,0,0l0,0s0,0,0,0,0,0,0-.05,0,0,0-.05V20.4s0,0,0,0l0-.15s0,0,0,0l0-.1v0l0-.1s0,0,0-.05,0,0,0-.05v0l0,0s0,0,0,0,0,0,0-.05v-.05s0,0,0-.05v-.05l0,0v-.05s0,0,0-.05,0,0,0,0,0,0,0-.05v-.05l0-.05s0,0,0-.05,0,0,0,0l0-.19s0,0,0-.05v-.05s0,0,0,0v-.05s0,0,0-.05l0-.1s0,0,0,0V18.4s0,0,0,0V18.3l0-.05s0,0,0-.05v-.05s0,0,0,0l0-.24s0,0,0-.05v0s0,0,0-.05l0-.1s0,0,0-.05,0,0,0,0v-.05s0,0,0,0v-.05s0,0,0-.05l0-.15s0,0,0-.05l0,0,0-.2s0,0,0-.05l0-.24s0,0,0-.05l0-.15s0,0,0-.05l0-.19s0,0,0,0v-.05s0,0,0-.05,0,0,0-.05l0-.1a.06.06,0,0,0,0,0l0,0,0,0h0l-.69.12,0,0,0,0s0,0,0,0,0,0,0,.05v0s0,0,0,.05l0,.1s0,0,0,.05,0,0,0,0v.05s0,0,0,.05l0,.09s0,0,0,.05v.05s0,0,0,0,0,0,0,.05,0,0,0,.06l0,.09s0,0,0,0V17s0,0,0,.05,0,0,0,.05l0,.09s0,0,0,0,0,0,0,.05l0,.1v.05s0,0,0,0,0,0,0,.05v.1s0,0,0,0v.15l0,0,0,0a.06.06,0,0,1,0,0l0,0,0,0s0,0,0,0l0,0-.08-.06s0,0,0,0l0,0,0,0-.09-.06s0,0,0,0l0,0,0,0-.08-.06,0,0,0,0-.07-.05-.05,0,0,0,0,0,0,0s0,0,0,0l0,0,0,0,0,0,0,0,0,0,0,0,0,0s0,0,0,0l0,0,0,0,0,0,0,0,0,0,0,0,0,0,0,0,0,0s0,0,0,0l0,0s0,0,0,0l0,0,0,0,0,0,0,0,0,0,0,0,0,0-.08-.05s0,0,0,0l0,0s0,0,0,0l-.25.05h0s0,0,0,0l-.3.05,0,0s0,0,0,0,0,0,0,0v.1Z"/><path class="cls-4" d="M124.94,16.75a.08.08,0,0,1,0,.05.43.43,0,0,0,0,.05.08.08,0,0,1,0,0,.06.06,0,0,0,0,0V17s0,0,0,.05,0,0,0,.05l0,.05,0,0s0,0,0,0l0,0s0,0,0,.05l0,0,0,.05s0,0,0,0l0,0,0,0,0,0s0,0,0,0l.05,0,0,0,0,0,0,0,0,0,0,0s0,0,0,0l0,0,0,0,0,0,.05,0,0,0,0,0s0,0,.05,0h.1l0,0h.15l0,0h.2s0,0,.05,0h.29s0,0,0,0a.07.07,0,0,0,.06,0l0,0s0,0,.05,0h.09l.05,0s0,0,0,0h.15l.05,0s0,0,0,0l0,0h0l.06,0h0l0,0,0,0,0,0,0,0a.08.08,0,0,1,0,0l0,0s0,0,0,0a.08.08,0,0,1,0,0s0,0,0,.05a.06.06,0,0,1,0,0,.09.09,0,0,1,0,.05v0s0,0,0,.05a.09.09,0,0,1,0,.05s0,0,0,.05,0,0,0,.05l0,0s0,0,0,.05l0,0s0,0,0,0l0,0,0,0,0,0,0,0-.05,0h-.09l0,0,0,0h0l0,0h-.84l0,0h-.05l0,0h-.1l0,0h0l0,0-.06,0,0,0,0,0,0,0,0,0,0,0s0,0,0,0l-.06,0,0,0-.06,0s0,0-.06,0l0,.05,0,0s0,0,0,.05,0,0,0,0a.09.09,0,0,1,0,.05l0,0a.09.09,0,0,0,0,.05l0,0s0,0,0,.05l0,0,0,.05,0,0,0,0,0,0,0,.05,0,0a.08.08,0,0,0,0,0s0,0,0,.05,0,0,0,0l0,0,0,0,0,0,0,0a.05.05,0,0,0,0,0s0,0,0,0l0,0,0,0,0,0,0,0,0,0,0,0,0,0,0,0h0l0,0h.1l0,0h0a.05.05,0,0,1,0,0h.1a.07.07,0,0,0,.06,0l0,0H127l0,0h.4l0,0h0l.05,0h0l0,0h0s0,0,0,0l0,0,0,0,.05,0h0a.05.05,0,0,1,0,0l0,0h.05l0,0,0,0,.05,0,0,0,0,0,0,0,0,0,0,0,0,0,0,0,0,0,0,0,0,0s0,0,0-.05l0,0a.13.13,0,0,0,0,0s0,0,0,0a.13.13,0,0,0,0-.05l0,0,0-.06s0,0,0,0l0,0a.07.07,0,0,1,0-.05.17.17,0,0,1,0-.05s0,0,0,0l0-.05s0,0,0-.05,0,0,0-.05v0a.14.14,0,0,0,0-.06s0,0,0-.05v-.05a.43.43,0,0,0,0-.05l0-.14a3731640636972.32,3731640636972.32,0,0,1,0-.1s0,0,0-.05a.09.09,0,0,0,0-.05v-.05a.05.05,0,0,1,0,0,.43.43,0,0,1,0-.05s0,0,0,0l0-.05a.08.08,0,0,0,0,0s0,0,0-.05l0,0,0,0,0,0s0,0,0,0,0,0,0,0l0,0-.08-.07s0,0,0,0,0,0,0,0a.05.05,0,0,1,0,0l-.05,0,0,0-.05,0,0,0s0,0,0,0h0l0,0-.05,0h0l-.05,0h0l0,0h-.09l0,0s0,0,0,0l0,0s0,0-.05,0l0,0h-.19a0,0,0,0,0-.05,0h-.64l0,0h0l0,0h-.05l0,0h0l-.05,0,0,0,0,0,0,0,0,0,0,0,0,0a.08.08,0,0,1,0,0s0,0,0,0a.17.17,0,0,0,0-.05s0,0,0,0v-.05s0,0,0-.05a.09.09,0,0,1,0-.05s0,0,0-.05,0,0,0,0,0,0,0-.05,0,0,0,0l0,0,0,0,0,0,0,0,0,0,0,0,0,0,.05,0,0,0h.14l0,0h.3s0,0,0,0h.05s0,0,0,0h0a0,0,0,0,0,0,0h.2l0,0h.09l0,0h0l0,0,0,0,0,0,0,0,0,0,.08.07,0,0s0,0,.06,0,0,0,.06,0l0,0s0,0,0,0l0,0s0,0,0,0l0,0s0,0,0,0l0,0s0,0,0,0l0,0,0,0,0-.05,0,0s0,0,0-.05l0,0a.13.13,0,0,0,0-.05s0,0,0,0,0,0,0-.05l0,0,0,0,0,0a.05.05,0,0,0,0,0l0,0,0,0,0,0,0,0,0,0,0,0,0,0-.05,0,0,0,0,0h0l0,0,0,0s0,0,0,0h-.79l-.2,0h0l0,0h-.2l0,0h-.1l0,0,0,0,0,0H126l0,0,0,0,0,0,0,0a.05.05,0,0,1,0,0l0,0,0,0,0,0,0,0,0,0,0,0,0,0,0,0s0,0,0,0l0,0,0,0,0,0,0,0a.13.13,0,0,1,0,.05s0,0,0,0,0,0,0,0a.05.05,0,0,1,0,0l0,0,0,.05a.08.08,0,0,1,0,0s0,0,0,.05a.09.09,0,0,1,0,.05s0,0,0,0,0,0,0,.05a.11.11,0,0,0,0,0s0,0,0,.05,0,0,0,.05,0,0,0,.05v.05s0,0,0,0v.05A.43.43,0,0,0,124.94,16.75Z"/><path class="cls-4" d="M130.43,15.26v.25s0,0,0,.05a.06.06,0,0,1,0,0l0,.35s0,0,0,.05,0,0,0,.05v.45s0,0,0,.05v.05s0,0,0,0,0,0,0,0v0s0,0,0,.05v.05s0,0,0,.05v.2s0,0,0,.05,0,0,0,.05v.35s0,0,0,.05,0,0,0,.05,0,0,0,.05,0,0,0,0,0,0,0,0v.1s0,0,0,.05,0,0,0,.05,0,0,0,.05,0,0,0,0v.1s0,0,0,.05v.05s0,0,0,0l0,.35s0,0,0,.05,0,0,0,.05v.29s0,0,0,.05,0,0,0,.05l0,.35s0,0,0,.05,0,0,0,.05v.2a.11.11,0,0,0,0,.05s0,0,0,0l.05,0h.19s0,0,0,0h.55l0,0s0,0,0,0a.08.08,0,0,0,0,0l0-.54s0,0,0,0v-.05a.43.43,0,0,0,0,0,.43.43,0,0,1,0-.05v-.2s0,0,0-.05,0,0,0-.05v-.2s0,0,0-.05a.43.43,0,0,0,0-.05l0-.53,0-.05,0,0,0,0s0,0,.05,0h.45l.54,0h.6l0,0s0,0,0,0,0,0,0,0l0-.64a.07.07,0,0,0,0-.05l0,0-.05,0h-1.68l0,0s0,0,0,0a.06.06,0,0,1,0,0v-.1a.13.13,0,0,1,0-.06s0,0,0-.05v-.4s0,0,0-.06v-.05s0,0,0,0,0,0,0-.05v-.1s0,0,0-.05l0,0h1.29l.7,0h.05l0,0s0,0,0,0a.09.09,0,0,0,0,0v-.15s0,0,0-.05v-.15s0,0,0,0v-.05s0,0,0,0v-.05s0,0,0-.05v0a.06.06,0,0,0,0,0s0,0,0,0l0,0a0,0,0,0,0-.05,0h-1.35l-.3,0H130.5s0,0,0,0,0,0,0,0,0,0,0,0,0,0,0,.05,0,0,0,.05Z"/><path class="cls-4" d="M135.16,17.57s0,0,0,.05,0,0,0,.05,0,0,0,0a.09.09,0,0,0,0,.05v.1a3731640636972,3731640636972,0,0,0,0,.1s0,0,0,.05,0,0,0,0a.09.09,0,0,0,0,.05v.05s0,0,0,.05a0,0,0,0,1,0,.05l0,0s0,0,0,.05,0,0,0,0,0,0,0,0l0,0a.11.11,0,0,1,0,.05s0,0,0,.05,0,0,0,0,0,0,0,.05a.08.08,0,0,0,0,0l0,.05,0,0,0,0s0,0,0,0l0,0s0,0,0,0l0,0,0,0a.08.08,0,0,0,0,0l0,0,0,0,0,0s0,0,0,0l0,0,0,0,0,0,0,0,0,0,0,0,0,0a.05.05,0,0,0,0,0s0,0,0,0l0,0,0,0,.05,0,0,0,0,0s0,0,0,0h0l0,0,0,0,0,0h.1l0,0,.05,0,0,0h1.29l0,0h.1l0,0h0l0,0h.05a.05.05,0,0,1,0,0l.05,0,0,0s0,0,.05,0l0,0,0,0,0,0,0,0,0,0,0,0,0,0,0,0,0,0s0,0,0,0l0,0,0,0s0,0,0,0l0,0,0,0,0,0,0,0,0,0s0,0,0,0l0-.05s0,0,0,0,0,0,0,0l0,0a.08.08,0,0,0,0,0l0-.05s0,0,0,0,0,0,0,0l0-.05s0,0,0,0l0-.05a.1.1,0,0,1,0,0l0-.05a.1.1,0,0,1,0,0l0-.05v0l0-.05s0,0,0,0l0-.05a.11.11,0,0,0,0-.05s0,0,0-.05a.07.07,0,0,1,0-.05s0,0,0,0,0,0,0-.05v0a93291015924.33,93291015924.33,0,0,1,0-.1.09.09,0,0,0,0-.05s0,0,0-.05,0,0,0,0a.07.07,0,0,0,0-.05v-.05a.43.43,0,0,0,0-.05v-.19a.43.43,0,0,1,0-.05v-.05a.43.43,0,0,0,0-.05v-.15a.11.11,0,0,1,0-.05s0,0,0-.05,0,0,0-.05a.09.09,0,0,1,0,0l0-.05v-.05s0,0,0-.05,0,0,0,0a279873047773,279873047773,0,0,1,0-.15s0,0,0,0,0,0,0-.05a.07.07,0,0,0,0,0s0,0,0-.05a.11.11,0,0,0,0-.05.17.17,0,0,0,0-.05.06.06,0,0,0,0,0l0-.05a.05.05,0,0,0,0,0l0-.05s0,0,0,0,0,0,0,0l0-.05,0-.05,0,0s0,0,0,0l0,0,0-.05s0,0,0,0l0,0,0,0,0,0,0,0,0,0s0,0,0,0l0,0s0,0,0,0l0,0,0,0s0,0,0,0,0,0,0,0l0,0-.05,0,0,0,0,0,0,0,0,0,0,0-.05,0,0,0h-.05l0,0h-.05l0,0h-.1l-.05,0,0,0h-.05l0,0h-1.18l-.05,0h-.14l-.05,0h0l-.05,0,0,0h-.05l0,0,0,0-.05,0,0,0-.05,0,0,0,0,0s0,0,0,0l0,0s0,0,0,0,0,0,0,0,0,0,0,0l0,0,0,0s0,0,0,0l0,0a0,0,0,0,0,0,0,.08.08,0,0,0,0,0l0,0,0,0s0,0,0,0l0,0,0,0s0,0,0,0l0,0s0,0,0,0,0,0,0,0l0,0s0,0,0,0l0,.05a.08.08,0,0,0,0,0s0,0,0,.05l0,0a.08.08,0,0,1,0,.05s0,0,0,0,0,0,0,.05a.08.08,0,0,1,0,.05.09.09,0,0,1,0,0s0,0,0,0a.09.09,0,0,0,0,0l0,.05s0,0,0,.05,0,0,0,.05,0,0,0,0a.09.09,0,0,0,0,.05s0,0,0,.05a.43.43,0,0,0,0,0v.05a.43.43,0,0,0,0,.05.11.11,0,0,1,0,.05V17a.06.06,0,0,1,0,0v.05a.43.43,0,0,1,0,.05v.3s0,0,0,.05Zm1-.17s0,0,0,0,0,0,0-.05v-.05a.43.43,0,0,0,0-.05v-.05a.43.43,0,0,0,0,0v-.05a.06.06,0,0,0,0,0,.43.43,0,0,0,0-.05v-.05s0,0,0,0a.43.43,0,0,1,0-.05.11.11,0,0,0,0-.05s0,0,0,0a.43.43,0,0,1,0-.05s0,0,0-.05l0,0,0-.05s0,0,0,0a.08.08,0,0,1,0-.05l0,0,0-.05,0,0,0,0,0-.05,0,0,0,0,0,0,0,0,0,0,.05,0,0,0,0,0,0,0,0,0s0,0,0,0l0,0,0,0,0,0,.06,0h.09a.05.05,0,0,1,0,0h.05l0,0h.05l.05,0h.53l.05,0,0,0H138a.05.05,0,0,1,0,0h.05l0,0,0,0,.05,0,0,0,0,0,0,0,0,0a.05.05,0,0,0,0,0l0,0,0,0,0,0,0,.05,0,0s0,0,0,0l0,0,0,0,0,.05,0,0s0,0,0,0a.43.43,0,0,0,0,.05l0,0,0,.05a.11.11,0,0,0,0,.05,0,0,0,0,1,0,.05s0,0,0,0l0,0v0a.08.08,0,0,1,0,.05.07.07,0,0,1,0,.05v.05s0,0,0,.05a.08.08,0,0,0,0,0v.05a.11.11,0,0,0,0,0v.1s0,0,0,.05v.1s0,0,0,0a.43.43,0,0,0,0,0,.11.11,0,0,0,0,.05.07.07,0,0,1,0,.05v.05s0,0,0,0v.05a.43.43,0,0,1,0,.05.43.43,0,0,1,0,.05,91015625292,91015625292,0,0,0,0,.1l0,0,0,.05a.09.09,0,0,0,0,.05s0,0,0,.05a.05.05,0,0,0,0,0l0,.05s0,0,0,0a.05.05,0,0,1,0,0l0,.05s0,0,0,0l0,0,0,0s0,0,0,0l0,0,0,0s0,0,0,0l0,0s0,0,0,0l-.05,0s0,0,0,0l0,0,0,0,0,0,0,0,0,0h0L138,19l0,0-.05,0h-.78l-.05,0h0L137,19l-.05,0,0,0,0,0,0,0s0,0,0,0,0,0,0,0,0,0,0,0l0,0,0,0s0,0,0,0,0,0,0,0l0,0s0,0,0,0,0,0,0,0l0,0a.08.08,0,0,0,0-.05s0,0,0,0l0,0s0,0,0,0a.11.11,0,0,1,0-.05l0,0s0,0,0-.05,0,0,0,0v-.05l0,0a.09.09,0,0,0,0,0s0,0,0,0a.09.09,0,0,1,0,0,279873047773,279873047773,0,0,1,0-.15s0,0,0,0v-.1s0,0,0,0v-.2Z"/><path class="cls-4" d="M141.42,20l0,0,0,0h.15l.55.06h0l.05,0,0,0a.08.08,0,0,1,0,0V20s0,0,0-.05l0,0s0,0,0-.05v-.1l0-.06v-.05s0,0,0-.05,0,0,0,0v-.1s0,0,0,0,0,0,0-.05,0,0,0-.05,0,0,0-.05l0-.2s0,0,0-.05,0,0,0-.05,0,0,0,0,0,0,0-.05,0,0,0-.05,0,0,0-.05v-.05s0,0,0,0v-.05s0,0,0-.05v-.05a.09.09,0,0,1,0-.05l0,0,0,0h.14l.43,0,0,0s0,0,0,0,0,0,0,0l0,.05a.15.15,0,0,1,0,0l0,0,0,0,0,.05,0,0,0,.05v.05l0,0v.05l0,0,0,0,0,0,0,.06,0,0,0,0s0,0,0,0l0,0,0,0,0,.05,0,0s0,0,0,0v.06s0,0,0,0l0,0,0,0v.05s0,0,0,0a.06.06,0,0,1,0,.05s0,0,0,0,0,0,0,.05,0,0,0,0a.09.09,0,0,1,0,0l0,0,0,0s0,0,0,.05,0,0,0,0,0,0,0,0a.07.07,0,0,0,0,0l0,0s0,0,0,0l0,0,.15,0h.09l.39,0H145s0,0,0,0,0,0,0,0,0,0,0,0a.17.17,0,0,1,0-.05l0,0s0,0,0,0v-.06l0,0,0-.05,0,0s0,0,0,0l0,0s0,0,0-.05,0,0,0,0a.06.06,0,0,0,0,0,.09.09,0,0,0,0,0s0,0,0-.05a.08.08,0,0,0,0,0l0,0,0-.06,0,0,0,0a.07.07,0,0,0,0,0s0,0,0-.05l0,0,0-.05,0-.05,0,0s0,0,0-.05,0,0,0,0,0,0,0-.05l0,0s0,0,0-.05,0,0,0,0,0,0,0-.05,0,0,0-.05,0,0,0,0,0,0,0-.05,0,0,0-.05,0,0,0,0,0,0,0,0v-.05l0-.05v-.1l0-.05,0,0h.05l.05,0,0,0a.05.05,0,0,0,0,0l.05,0,0,0,0,0,0,0s0,0,0,0,0,0,.05,0l0,0a.05.05,0,0,1,0,0,.08.08,0,0,1,0,0l0,0,0,0,0,0,0,0,0,0s0,0,0,0l0,0s0,0,0,0l0,0,0,0a.17.17,0,0,0,0-.05l0-.05s0,0,0,0v-.05l0-.05a.08.08,0,0,1,0,0v-.05s0,0,0,0a.09.09,0,0,1,0-.05s0,0,0-.05l0-.25a0,0,0,0,1,0-.05.43.43,0,0,1,0-.05s0,0,0,0,0,0,0-.05,0,0,0,0a93291015924.33,93291015924.33,0,0,1,0-.1.09.09,0,0,0,0-.05v-.1s0,0,0,0,0,0,0,0l0-.05s0,0,0-.05l0,0s0,0,0,0,0,0,0-.05l0,0,0,0s0,0,0,0,0,0,0,0l0,0s0,0,0,0l0,0,0,0,0,0,0,0,0,0,0,0,0,0-.05,0,0,0-.05,0h0l0,0,0,0-.05,0h-.05l0,0h-.09l0,0-.05,0h-.05l0,0H144l0,0-.55,0h-.2l0,0h-.15l-.05,0-1-.1H142l-.05,0s0,0,0,0l0,0v.05s0,0,0,0,0,0,0,.05l0,.15s0,0,0,0v.05s0,0,0,.05l0,.29,0,.05s0,0,0,.05v.1l0,.05s0,0,0,.05l0,.34s0,0,0,.05v.15s0,0,0,.05v.05l0,.35s0,0,0,0,0,0,0,.05,0,0,0,.05,0,0,0,.05l-.05.55s0,0,0,0v.05s0,0,0,.05,0,0,0,0,0,0,0,.05v.05s0,0,0,.05,0,0,0,.05l0,.15s0,0,0,.05,0,0,0,.05,0,0,0,0,0,0,0,.06l-.05.49s0,0,0,0v.05l0,.29s0,0,0,.05v.05s0,0,0,.05V20s0,0,0,.05Zm1.21-2.72v-.15s0,0,0-.05,0,0,0-.05,0,0,0-.05v0l0-.05s0,0,0-.05l0-.05,0-.43v0s0,0,0-.05v-.05a.07.07,0,0,1,0-.05l0,0,0,0s0,0,.05,0l1,.1h.05l0,0H144s0,0,0,0l.05,0,0,0,0,0,0,0a.08.08,0,0,0,0,0l0,0,0,.05s0,0,0,0l0,.05,0,0a.09.09,0,0,0,0,.05.43.43,0,0,0,0,.05s0,0,0,0,0,0,0,.05a.43.43,0,0,0,0,.05V17a.43.43,0,0,1,0,.05v0a.09.09,0,0,0,0,.05s0,0,0,.05,0,0,0,0,0,0,0,.05l0,0,0,0s0,0,0,0l0,0,0,0s0,0-.05,0a.05.05,0,0,1,0,0s0,0-.05,0a0,0,0,0,1,0,0l0,0h-.06s0,0,0,0h-.11l-1-.11-.05,0s0,0,0,0l0,0S142.63,17.33,142.63,17.32Z"/><path class="cls-4" d="M146.65,20.63l0,0,0,0,.39.07h.11l.2,0h0l0,0,0,0s0,0,0-.05l.07-.39v0s0,0,0-.05l.14-.79v-.05s0,0,0,0l.06-.35s0,0,0-.05,0,0,0,0l.16-.94,0,0,0,0,.05,0a.08.08,0,0,1,0,0,.11.11,0,0,0,0,0s0,0,0,.05l0,0,0,.06s0,0,0,0,0,0,0,0l0,.05v.05l0,.05a.07.07,0,0,1,0,.05.09.09,0,0,1,0,0s0,0,0,0a.09.09,0,0,1,0,0s0,0,0,.05l0,0,0,.05,0,.05v.05a.06.06,0,0,1,0,0,.09.09,0,0,1,0,.05.06.06,0,0,0,0,0,.13.13,0,0,1,0,.06s0,0,0,0,0,0,0,0a.07.07,0,0,1,0,.05s0,0,0,0l0,0s0,0,0,0a.07.07,0,0,1,0,.06l0,0,0,.05s0,0,0,.05,0,0,0,.05,0,0,0,0,0,0,0,.05,0,0,0,0a.06.06,0,0,0,0,0l0,0s0,0,0,.05,0,0,0,.05,0,0,0,0l0,.05a.07.07,0,0,1,0,.05s0,0,0,.05l0,0,0,0,.08,0,0,0,0,0s0,0,0,0l0,0s0,0,0,0,0,0,0,0l0,0,0,0,0,0,0,0a.09.09,0,0,0,0-.05s0,0,0,0,0,0,0,0l0,0,0,0,0,0s0,0,0,0l0,0,0,0,0,0,0,0,0,0,0-.05s0,0,0,0,0,0,0,0l0,0s0,0,0,0l0,0,0,0s0,0,0,0,0,0,0,0l0,0,0,0,0,0,0,0,0,0,0-.05s0,0,0,0l0,0,0,0s0,0,0,0l0,0,0,0,0,0,0,0,0,0,0,0s0,0,0,0l0,0a.43.43,0,0,1,0,.05v.06s0,0,0,.05v.09s0,0,0,.05l0,.1s0,0,0,0,0,0,0,.05l0,.09s0,0,0,.05l0,.1s0,0,0,.05,0,0,0,0,0,0,0,.05v.05s0,0,0,.05l0,.19s0,0,0,.05v.1s0,0,0,.05,0,0,0,0,0,0,0,.05l0,0,0,.1s0,0,0,.05,0,0,0,.05v0s0,0,0,.06l0,.09s0,0,0,.06l0,.1s0,0,0,.05,0,0,0,0v.05s0,0,0,.05l0,.15s0,0,0,.05v.09s0,0,0,.05,0,0,0,.05,0,0,0,0,0,0,0,.05v.1l0,0,0,0h0l.69.13h.05l.05,0s0,0,0,0l0,0s0,0,0-.05,0,0,0-.05,0,0,0-.05v-.05s0,0,0,0V21l0-.09s0,0,0-.05,0,0,0-.05,0,0,0,0l0-.1v-.05l0-.09s0,0,0-.05l0-.1v-.05l0-.1,0,0s0,0,0-.05a.43.43,0,0,1,0-.05s0,0,0,0,0,0,0-.05v-.1l0-.05v0s0,0,0-.05l0-.15s0,0,0-.05v-.1a.08.08,0,0,1,0,0l0-.15s0,0,0-.05v-.05s0,0,0,0l0-.1s0,0,0-.05v0a.43.43,0,0,1,0-.05s0,0,0-.05,0,0,0,0v-.1l0-.1s0,0,0,0,0,0,0-.05v0s0,0,0-.05v-.15l0,0,0-.24v-.05s0,0,0-.05v0s0,0,0-.05v0a.43.43,0,0,1,0-.05v-.05l0-.1s0,0,0,0,0,0,0-.05l0-.1s0,0,0,0v-.1l0-.1s0,0,0-.05,0,0,0-.05V16.9s0,0,0,0,0,0,0-.05v0s0,0,0-.05a.09.09,0,0,0,0-.05.06.06,0,0,0,0-.05l0,0h-.05l-.69-.13h-.14l0,0s0,0,0,0l0,0s0,0,0,.05l0,0,0,0s0,0,0,0l0,0,0,.05,0,0s0,0,0,0,0,0,0,0,0,0,0,.05,0,0,0,0l0,0,0,0,0,0,0,0,0,.05s0,0,0,0,0,0,0,0l0,0,0,0s0,0,0,0,0,0,0,0a.09.09,0,0,1,0,.05l0,0,0,0,0,0,0,0,0,0,0,0s0,0,0,0l0,0,0,0a.09.09,0,0,0,0,.05l0,0a.07.07,0,0,1,0,0l0,0,0,0s0,0,0,0l0,0,0,.05s0,0,0,0l0,0,0,0s0,0,0,0a.09.09,0,0,1,0,.05.07.07,0,0,0,0,0s0,0,0,0l0,0s0,0,0,0,0,0,0,0a0,0,0,0,1,0,0h0s0,0,0,0,0,0,0,0,0,0,0-.05,0,0,0,0,0,0,0,0l0-.06,0,0,0-.05a.06.06,0,0,0,0,0,.13.13,0,0,0,0-.06.07.07,0,0,1,0,0,.11.11,0,0,0,0-.05s0,0,0,0a.11.11,0,0,1,0-.05l0-.05s0,0,0,0v-.05s0,0,0,0l0-.06,0,0,0-.05s0,0,0,0,0,0,0-.05a.07.07,0,0,1,0-.05l0,0a.07.07,0,0,0,0-.05s0,0,0,0l0-.06a.06.06,0,0,0,0,0l0-.05,0,0s0,0,0-.05a.11.11,0,0,0,0-.05.06.06,0,0,1,0,0s0,0,0-.05,0,0,0,0l0-.05,0,0s0,0,0-.05,0,0,0,0l0-.06v0l0-.05v-.05l0,0a.07.07,0,0,1,0-.05s0,0,0,0l0-.05s0,0,0-.05,0,0,0,0,0,0,0,0,0,0,0,0a.05.05,0,0,1,0,0l0,0h0l-.74-.13s0,0-.05,0l-.05,0,0,0a.07.07,0,0,0,0,.05l-.11.58s0,0,0,.05,0,0,0,0,0,0,0,.05,0,0,0,.05l-.16.88,0,0,0,.1s0,0,0,.05l0,.29s0,0,0,.05,0,0,0,.05,0,0,0,.05,0,0,0,0v.05s0,0,0,0v.06l-.39,2.14v0S146.64,20.61,146.65,20.63Z"/><path class="cls-4" d="M152.93,21.87l0,0,0,0,.68.17s0,0,.05,0,0,0,0,0,0,0,0,0,0,0,0,0V22s0,0,0-.05,0,0,0,0V21.8a.08.08,0,0,1,0,0v-.1s0,0,0-.05,0,0,0-.05a.08.08,0,0,1,0,0v-.1s0,0,0-.05,0,0,0-.05a.08.08,0,0,1,0,0l.07-.29v0s0,0,0-.05l.09-.39s0,0,0-.05l0,0,0-.1v0a.08.08,0,0,0,0,0l.07-.29s0,0,0-.05v-.05s0,0,0,0v-.05l0,0v0l0-.06,0-.19s0,0,0,0,0,0,0-.05l0-.14s0,0,0-.05,0,0,0-.05V19s0,0,0-.05v-.05l0,0,.06-.24s0,0,0,0,0,0,0-.05l0-.14v-.05s0,0,0-.05l0-.1v-.05l0,0s0,0,0-.05,0,0,0-.05l0-.05v-.1a.08.08,0,0,0,0,0l0-.1s0,0,0-.05a.08.08,0,0,1,0,0l0-.15s0,0,0-.05,0,0,0-.05l0,0,0,0-.09,0h-.05s0,0-.06,0l-.14,0h-.05s0,0-.05,0l-.24-.06h-.05l0,0s0,0,0,0l0,.09s0,0,0,.05,0,0,0,.05l-.08.34s0,0,0,0l0,.15s0,0,0,.05l-.17.72s0,0,0,.05,0,0,0,0,0,0,0,0,0,0,0,0l0,.1s0,0,0,.05,0,0,0,.05l0,.14,0,0s0,0,0,.05l-.16.62s0,0,0,.05v.15s0,0,0,0,0,0,0,.05l0,.15s0,0,0,0l0,.1s0,0,0,.05l-.07.29s0,0,0,.05v.05l0,.19,0,0v.05l-.05.19,0,0v.05s0,0,0,.05l0,.2s0,0,0,0,0,0,0,.05Z"/><path class="cls-4" d="M155.63,22.57l.05,0,.67.21h.1s0,0,0,0l0-.05v0s0,0,0-.05,0,0,0-.05v-.05s0,0,0-.05l0-.14,0,0v-.05l0,0s0,0,0-.05v0s0,0,0-.05,0,0,0-.05l0-.05V21.9l0,0v-.05s0,0,0,0,0,0,0,0v0s0,0,0-.05,0,0,0-.05l0-.09s0,0,0-.05l0,0,.06-.19s0,0,0-.05,0,0,0,0v-.05l0,0V21s0,0,0-.05,0,0,0-.05v0s0,0,0-.05l0-.09s0,0,0-.05,0,0,0-.05,0,0,0,0,0,0,0-.05,0,0,0,0,0,0,0-.05l0,0,0-.05s0,0,0-.05l0,0v-.05s0,0,0-.05,0,0,0-.05l0,0s0,0,0-.05,0,0,0,0v0s0,0,0-.05l0,0s0,0,0-.05,0,0,0,0,0,0,0-.05,0,0,0-.05h.09l0,0,0,.05,0,0,0,.09,0,0,0,0,0,.05,0,0,0,.05,0,0s0,0,0,0,0,0,0,0l0,0,0,0,0,.05,0,0,0,.05,0,0,0,.05,0,0,0,0s0,0,0,0,0,0,0,.05l0,.09s0,0,0,0l0,0a.09.09,0,0,0,0,.05s0,0,0,0l0,0,0,0,0,0s0,0,0,.05l0,.05s0,0,0,0l0,.08,0,0,0,0,0,.09,0,0s0,0,0,.05l0,0,0,.08s0,0,0,.05l.06.13,0,.05,0,0a.06.06,0,0,1,0,.06s0,0,0,.05l-.07.24,0,0s0,0,0,.05,0,0,0,.05l0,.14s0,0,0,0v.05l0,0v0s0,0,0,.05l0,.05-.06.19s0,0,0,0l0,0v0l0,.05,0,0,0,.05a.09.09,0,0,0,0,.05s0,0,0,.05a0,0,0,0,0,0,0s0,0,.05,0l.52.16,0,0h.15l.05,0s0,0,0,0,0,0,0,0,0,0,0-.05v-.05l0,0,0-.14s0,0,0-.05l0-.1,0,0,0-.1V23s0,0,0,0l0-.05s0,0,0-.05,0,0,0,0,0,0,0-.05l0,0,0-.05,0-.05v-.05l0,0s0,0,0-.05,0,0,0-.05,0,0,0,0v-.05s0,0,0-.05l0,0s0,0,0-.05l.06-.19s0,0,0,0v-.05s0,0,0-.05v0l0,0,0-.09s0,0,0-.05l0,0s0,0,0-.05v0s0,0,0-.05,0,0,0-.05l0-.05v-.05l.08-.23s0,0,0-.05v-.05s0,0,0-.05l0-.09,0-.05s0,0,0,0v0s0,0,0-.05l0,0s0,0,0-.05l0-.14,0,0s0,0,0-.05l.06-.19s0,0,0,0l.07-.23s0,0,0-.05l0-.15s0,0,0,0l.06-.19s0,0,0-.05v-.05s0,0,0,0,0,0,0-.05l0-.1a.43.43,0,0,0,0,0s0,0,0-.05,0,0,0,0l-.05,0-.67-.21h-.09l0,0,0,0v0s0,0,0,.05l0,.1,0,0s0,0,0,.05v.05l0,0,0,.1s0,0,0,0l0,.05s0,0,0,0,0,0,0,.05,0,0,0,.05l0,.1s0,0,0,0l0,.09s0,0,0,.05v.05l0,.09s0,0,0,.05,0,0,0,.05l0,.09,0,.05s0,0,0,0l0,0,0,.1s0,0,0,.05,0,0,0,0v.05s0,0,0,0l0,0h0s0,0,0,0,0,0,0,0l0,0,0-.05,0,0,0-.08a.09.09,0,0,0,0-.05s0,0,0,0,0,0,0-.05l0-.09,0,0,0,0,0-.05,0-.09,0,0,0-.05,0-.08,0,0,0-.05,0-.05,0,0s0,0,0-.05l0,0,0,0,0,0,0-.05s0,0,0,0l0-.05,0,0s0,0,0-.05l0,0,0,0s0,0,0-.05l0,0s0,0,0-.05l0,0,0-.05,0,0,0,0s0,0,0-.05l0,0s0,0,0,0l0,0,0,0s0,0,0,0l0-.05,0,0,0,0,0-.05,0-.08s0,0,0,0l0,0s0,0,0,0l-.24-.08h0l-.05,0-.28-.08s0,0-.06,0,0,0,0,0l0,0,0,.05,0,.14s0,0,0,.05,0,0,0,.05l0,.14,0,0v0s0,0,0,.05,0,0,0,.05,0,0,0,0l0,.05s0,0,0,.05l0,.14,0,0s0,0,0,.05l0,0,0,.15s0,0,0,.05,0,0,0,0l0,.1s0,0,0,0v0s0,0,0,0v.05s0,0,0,0v.05s0,0,0,.05,0,0,0,.05l0,0,0,.05v.05l0,0s0,0,0,.05l-.06.19,0,.05s0,0,0,.05v.05l0,0v.05s0,0,0,.05l0,.09s0,0,0,0,0,0,0,.05l0,0v.05l0,.1s0,0,0,0,0,0,0,.05,0,0,0,.05l0,.09s0,0,0,.05v0s0,0,0,.05l0,.09s0,0,0,.05,0,0,0,0,0,0,0,.05,0,0,0,.05l0,.09s0,0,0,.05l0,.1s0,0,0,0,0,0,0,0,0,0,0,.05v.05s0,0,0,.05l0,.14,0,0v.05l0,0s0,0,0,.05l0,.09s0,0,0,.05l0,.05,0,0s0,0,0,.05,0,0,0,0A.11.11,0,0,0,155.63,22.57Z"/><path class="cls-4" d="M161.48,23.11v.15l0,.19v.06l0,.09s0,0,0,0v0l0,.11a0,0,0,0,0,0,0v.09l0,.05,0,0v.05a0,0,0,0,1,0,0s0,0,0,0,0,0,0,.05l0,0,0,.05,0,0,0,.05.06.08,0,0,0,0s0,0,0,0l0,0s0,0,0,0l0,0s0,0,0,0l.05,0,0,0,0,0,0,0,0,0,0,0,0,0,0,0,0,0,0,0s0,0,0,0,0,0,0,0h0l0,0,0,0,.13.05H163l.05,0h0l.05,0h.19l0,0H164s0,0,0,0l0,0h.06l.14,0h.2l.1,0h.3l0,0s0,0,0,0l.11-.28,0,0v-.05l.24-.61v-.05l0,0V24l0-.07v-.08l0-.05,0,0s0,0,0-.05,0,0,0,0l.13-.34v0l0-.05.08-.18V23l0-.05,0,0-.1,0h-.05l0,0s0,0,0,0h-.05l-.05,0,0,0-.23-.09h-.05l-.19-.07a.09.09,0,0,0,0,0l0,0h0l-.05,0,0,0h-.05l0,0h-.05l0,0,0,0h0a.09.09,0,0,0-.06,0s0,0,0,0l0,0a.09.09,0,0,1,0,.05l0,0,0,0,0,0,0,0s0,0,0,.05l0,0s0,0,0,0a.33.33,0,0,1,0,.06s0,0,0,0a.13.13,0,0,0,0,.05l0,0a.08.08,0,0,0,0,0v.07l0,0,0,0,.1,0,.05,0h0l0,0,.05,0,.09,0,.05,0h0l.09,0,.05,0,0,.05v0s0,0,0,.05l-.3.77-.05,0,0,0h-.1l0,0h-.15l-.1,0h-.35l0,0h-.06l0,0h-.05s0,0,0,0h-.05s0,0,0,0l-.05,0,0,0,0,0-.05,0,0,0,0,0s0,0,0,0l0,0s0,0,0,0l0,0,0,0,0-.05,0,0a.43.43,0,0,0,0-.05l0,0,0-.05,0,0v-.05s0,0,0-.05v-.05l0-.14v-.2s0,0,0,0V23a.08.08,0,0,1,0,0v-.1a.08.08,0,0,1,0-.05,0,0,0,0,1,0,0,.13.13,0,0,1,0-.06,91015625292,91015625292,0,0,0,0-.1s0,0,0,0l0-.05s0,0,0-.05l0-.09a.11.11,0,0,0,0-.05l.11-.28,0,0a.08.08,0,0,0,0,0l0-.05s0,0,0,0,0,0,0,0l0-.05,0,0,0,0s0,0,0-.05l0,0s0,0,0,0l0,0,0,0s0,0,0,0l0,0,0,0,0,0,0,0,0,0,0,0,0,0,.05,0,0,0,.05,0,0,0h.09l.06,0h.05l0,0h.5l0,0h0l.05,0h0l.13.05,0,0,0,0,0,0,0,0,0,0s0,0,0,0a.08.08,0,0,0,0,0l0,0,0,0,.06.07,0,0,0,.05,0,0s0,0,0,0a.06.06,0,0,0,0,.05.05.05,0,0,1,0,0l0,.05a.17.17,0,0,0,0,.05V22a.05.05,0,0,1,0,0s0,0,0,.05l0,0,0,0,.06,0h0l0,0,.05,0,0,0,.05,0,0,0,.05,0,0,0,.05,0,0,0h.05l0,0,.05,0h0l0,0,0,0,0,0s0,0,0,0l0-.05a.08.08,0,0,0,0-.05l0-.05,0,0a.06.06,0,0,0,0-.05.05.05,0,0,0,0,0,.08.08,0,0,1,0-.05.05.05,0,0,1,0,0l0,0,0,0,0-.08,0-.05,0,0s0,0,0,0l0-.05a0,0,0,0,0,0,0l0,0,0,0,0,0,0,0,0,0,0,0,0,0s0,0,0,0,0,0,0,0l0,0,0,0,0,0,0,0-.05,0h0s0,0,0,0,0,0,0,0H165l0,0-.05,0h0l0,0,0,0,0,0h0l-.05,0h0l0,0h-.15l0,0h-.24s0,0,0,0,0,0-.05,0a0,0,0,0,1-.05,0h-.1a0,0,0,0,0,0,0h-.35l0,0h0s0,0-.05,0h0l-.05,0,0,0a.05.05,0,0,0-.05,0h0l0,0-.06,0,0,0,0,0,0,0-.05,0,0,0,0,0,0,0,0,0,0,0-.11.09,0,0-.07.06-.07.08,0,0,0,0,0,0,0,0s0,0,0,0l0,0s0,0,0,0a.08.08,0,0,0,0,0l0,0a.05.05,0,0,1,0,0,.08.08,0,0,1,0,0l0,.05s0,0,0,0,0,0,0,0,0,0,0,0,0,0,0,.05a.08.08,0,0,0,0,0l0,0s0,0,0,.05l0,.09,0,0a.07.07,0,0,1,0,.05l-.09.23s0,0,0,.05l0,.09v.06l0,.09s0,0,0,.05a.09.09,0,0,1,0,.05.08.08,0,0,1,0,0,0,0,0,0,1,0,.05s0,0,0,.05v.05a.11.11,0,0,0,0,0s0,0,0,.05v0a.13.13,0,0,0,0,.06v.05s0,0,0,0v.11S161.47,23.09,161.48,23.11Z"/><path class="cls-4" d="M88.88,33V46.58a2,2,0,0,0,.46,1.35,13,13,0,0,1,6.42,1c.87.35,1.62.68,2.3,1a2,2,0,0,0,1.08-.2,1.34,1.34,0,0,0,.58-1.27V34.91L95,34.08V45.66c0,.11,0,.16-.16.14l-1.12-.2a.18.18,0,0,1-.16-.2V33.83Z"/><polygon class="cls-4" points="100.59 35.06 100.59 50.45 108.49 51.85 108.49 48.2 105.41 47.66 105.29 47.52 105.29 35.89 100.59 35.06"/><path class="cls-4" d="M120.18,43.14V40.38c0-1.24-.78-2-2.35-2.28L111.68,37c-1.56-.28-2.35.2-2.35,1.44v5.83c0,1.24.79,2,2.35,2.27l3.64.64a.18.18,0,0,1,.16.2v1.86c0,.12,0,.16-.16.14l-1.12-.19A.19.19,0,0,1,114,49V48.2l-4.7-.83v2.82a1.91,1.91,0,0,0,.59,1.47,3.39,3.39,0,0,0,1.76.75l6.15,1.08a2.72,2.72,0,0,0,1.77-.12,1.34,1.34,0,0,0,.58-1.27V46.2a1.9,1.9,0,0,0-.58-1.47,3.38,3.38,0,0,0-1.77-.75l-3.63-.64a.19.19,0,0,1-.17-.21V41.27c0-.11.06-.16.17-.14l1.12.2a.18.18,0,0,1,.16.2v.78Z"/><polygon class="cls-4" points="129.89 51.98 125.86 51.26 125.74 51.12 125.74 49.16 125.86 49.06 129.82 49.76 129.82 46.09 125.86 45.39 125.74 45.25 125.74 43.29 125.86 43.19 129.87 43.9 129.87 40.23 121.04 38.67 121.04 54.06 129.89 55.62 129.89 51.98"/><path class="cls-4" d="M81.87,42.63l.12-.1,3.68.64a2.67,2.67,0,0,0,1.78-.12A1.36,1.36,0,0,0,88,41.78V34.71c0-1.24-.78-2-2.35-2.28l-28-4.93L59,29.29a2.08,2.08,0,0,0,1.31.81l16.86,3a2.56,2.56,0,0,1,1.6,2.37L61.31,32.42l1.33,1.79a2.06,2.06,0,0,0,1.19.79l18,3.18V35.55l.12-.1,1.17.21a.18.18,0,0,1,.16.2v3.08h0v1a.14.14,0,0,1-.17.15L64.58,36.84l1.33,1.79a2.14,2.14,0,0,0,1.31.82l10,1.81a2.55,2.55,0,0,1,1.6,2.37L68.22,41.76l.83,1.13a4.21,4.21,0,0,0,2.63,1.63l.92.16a5.35,5.35,0,0,0,2.87,1.49l6.4,1.13Z"/><path class="cls-4" d="M152.43,42.83V40.06c0-1.24-.78-1.72-2.35-1.44l-6.14,1.08c-1.57.28-2.35,1-2.35,2.28V47.8c0,1.24.78,1.72,2.35,1.45l3.63-.64c.11,0,.16,0,.16.14v1.86a.18.18,0,0,1-.16.2l-1.12.2c-.11,0-.16,0-.16-.15v-.8l-4.7.82V53.7a1.34,1.34,0,0,0,.58,1.27,2.72,2.72,0,0,0,1.77.12L150.08,54a3.42,3.42,0,0,0,1.77-.75,1.9,1.9,0,0,0,.58-1.47v-5.9a1.34,1.34,0,0,0-.58-1.27,2.7,2.7,0,0,0-1.77-.13l-3.63.64c-.11,0-.16,0-.16-.14V43.13a.18.18,0,0,1,.16-.2l1.12-.2c.11,0,.16,0,.16.14v.79Z"/><path class="cls-4" d="M162.89,51.75V46.17l2-.34a1.36,1.36,0,0,0,1.09-1.32V35.82l-4.7.83v6.22a.19.19,0,0,1-.17.2l-1.11.2c-.11,0-.17,0-.17-.15V36.91l-4.7.83v8.68a.93.93,0,0,0,.32.74.88.88,0,0,0,.77.2l2-.36v5.58Z"/><path class="cls-4" d="M172.66,34.66l-4.08.7V50.75l2.64-.47.87-.41V41.79l2.24,7.11a13.54,13.54,0,0,1,5.09-1V33.45l-4.41.77v6.24Z"/><path class="cls-4" d="M192.89,31.07l-2.21.39-6.14,1.08c-1.57.28-2.35,1-2.35,2.28V46.54a1.34,1.34,0,0,0,.58,1.27,2.7,2.7,0,0,0,1.77.13l6.14-1.09,4-.71a5.42,5.42,0,0,0,2.86-1.48l1.74-.31a2,2,0,0,0,1.31-.81L202,41.76l-10.55,1.86A2.51,2.51,0,0,1,193,41.27l9.93-1.8a2.07,2.07,0,0,0,1.31-.81l1.33-1.78-17.27,3v3.52a.18.18,0,0,1-.16.2l-1.12.2c-.11,0-.17,0-.17-.15V36a.19.19,0,0,1,.17-.2l1.12-.2c.11,0,.16,0,.16.15v2.51h0l17.9-3.16a2.05,2.05,0,0,0,1.31-.81l1.33-1.77-17.46,3.07A2.53,2.53,0,0,1,193,33.21l16.84-3a2.07,2.07,0,0,0,1.31-.81l1.33-1.78Z"/><path class="cls-4" d="M135.58,55.56h0a.79.79,0,0,0,.67-.36l2.69-4.15V45.22l-2.69-4.15a.82.82,0,0,0-.67-.36h0a.82.82,0,0,0-.67.36l-2.69,4.15v5.83l2.69,4.15A.79.79,0,0,0,135.58,55.56Zm-2.81-10.17,2.61-4a.23.23,0,0,1,.2-.11.25.25,0,0,1,.21.11l2.6,4v5.5l-2.6,4a.25.25,0,0,1-.21.11.23.23,0,0,1-.2-.11l-2.61-4Z"/><path class="cls-4" d="M187.73,58.79c-.75-1.81-2.91-7.38-3.2-8.16A3,3,0,0,0,183,49.55c-1.13-.5-4.23-1.46-8.65.35a44.33,44.33,0,0,0-5.33,2.58,26.79,26.79,0,0,1-7.61,3,18,18,0,0,1-7.74-.26l3.79,2.49a1.4,1.4,0,0,1,.6,1l.23,7a20.85,20.85,0,0,0,6.19-.21c1.75-.33,4.1-1.52,7.09-3,1.58-.8,3.38-1.7,5.37-2.63A15.27,15.27,0,0,1,187.73,58.79Z"/><path class="cls-7" d="M165.79,62.4v.06s0,0,0,.06a.42.42,0,0,0,0,.06s0,0,0,.05,0,0,0,.06a.07.07,0,0,1,0,.06l0,.06s0,0,0,.06,0,0,0,.05,0,0,0,0a.07.07,0,0,1,0,.06l0,0s0,0,0,.05l0,0s0,0,0,0l0,.05s0,0,0,0,0,0,0,0,0,0,0,0,0,0,0,.06l0,0-.05,0,0,0,0,0s0,0-.05,0l-.05,0a.07.07,0,0,1,0,0l-.05,0-.06,0s0,0,0,0l-.06,0a.05.05,0,0,1-.05,0l0,0-.05,0-.06,0-.06,0-.05,0-.06,0h-.06l-.12,0H164s0,0-.06,0h-.48a.16.16,0,0,0-.07,0l-.06,0h-.17l-.06,0-.06,0,0,0L163,64l-.06,0-.06,0-.05,0-.06,0a.06.06,0,0,0,0,0l0,0s0,0,0,0l-.05,0,0,0-.05,0,0,0-.05,0,0,0,0,0-.05-.05s0,0,0,0l0,0a.07.07,0,0,1,0-.05v-.07s0,0,0,0,0,0,0-.07,0,0,0-.06,0,0,0-.06a.13.13,0,0,0,0-.06s0,0,0-.06l0-.06s0,0,0-.06l0-.18s0,0,0-.06l0-.06a.13.13,0,0,0,0-.06v-.06a.33.33,0,0,1,0-.06l0-.06s0,0,0-.06,0,0,0,0,0,0,0-.06l0-.06s0,0,0,0l-.09-.29s0,0,0-.06l-.06-.23s0,0,0-.06l0-.17s0,0,0-.06l0-.06s0,0,0-.06l0-.06s0,0,0-.06,0,0,0,0l0-.12s0,0,0-.06,0,0,0-.05,0,0,0-.06,0,0,0-.06l0-.12s0,0,0-.06,0,0,0-.05,0,0,0-.06,0,0,0-.06l0,0s0,0,0-.07V59.9s0,0,0-.06l-.05-.17s0,0,0-.06l0-.06s0,0,0-.06,0,0,0-.06l0-.07,0,0,0-.12,0,0s0,0,0-.06,0,0,0-.06,0,0,0-.06a.05.05,0,0,1,0-.05l0,0,0,0s0,0,0,0,0,0,0-.06v0l0,0s0,0,0,0l1.22-.36s0,0,.05,0l0,0s0,0,0,.05,0,0,0,0v.13a.15.15,0,0,0,0,.06v.06a.15.15,0,0,1,0,.07.2.2,0,0,0,0,.07l0,0s0,0,0,.06v.07l0,0a.13.13,0,0,0,0,.06.15.15,0,0,0,0,.07l0,.11s0,0,0,.06,0,0,0,.06l0,.06s0,0,0,.06l0,.11s0,0,0,.06l0,.06s0,0,0,.06,0,0,0,0,0,0,0,.06l0,.18s0,0,0,.05,0,0,0,.06v.06s0,0,0,.06,0,0,0,.06l.1.34s0,0,0,.06,0,0,0,.06l0,.12s0,0,0,.05V61s0,0,0,.06l.09.29s0,0,0,.06,0,0,0,.06l.05.17s0,0,0,.06,0,0,0,.06l.15.52s0,0,0,.05l0,.06s0,0,0,.06l.07.23s0,0,0,.06a.05.05,0,0,0,0,.05.08.08,0,0,0,0,0,.1.1,0,0,0,0,0,.09.09,0,0,0,0,.05l0,0,0,0,.05,0,.06,0,0,0h.06s0,0,.06,0H164l.06,0h.06s0,0,.05,0l.06,0s0,0,0,0l.05,0,0,0,0-.06,0,0s0,0,0-.06a.11.11,0,0,0,0-.06s0,0,0,0a.2.2,0,0,0,0-.07s0,0,0,0a.07.07,0,0,0,0-.06v-.06l-.07-.24s0,0,0-.06,0,0,0,0l-.05-.18s0,0,0-.06,0,0,0-.05l0-.06s0,0,0-.06,0,0,0-.06,0,0,0-.06l0-.05s0,0,0-.06v-.06s0,0,0-.06,0,0,0-.06,0,0,0-.05l0-.12s0,0,0-.06l0,0s0,0,0-.06,0,0,0-.06l0-.11s0,0,0-.07,0,0,0,0l0-.12s0,0,0-.06,0,0,0-.05l0-.12s0,0,0-.06v-.06s0,0,0-.05l-.07-.23s0,0,0-.07,0,0,0,0l-.11-.35s0,0,0-.06,0,0,0,0l0-.06s0,0,0-.06,0,0,0-.06l0-.11s0,0,0-.07,0,0,0-.05l-.09-.3,0-.06,0-.12,0-.05,0-.06,0-.05s0,0,0-.06l0,0a.09.09,0,0,0-.05,0s0,0,0-.06,0,0,0,0l0,0s0,0,0,0l.47-.14h.06l0,0,.59-.17h.11l0,0,0,0s0,0,0,.05a.11.11,0,0,0,0,.07v.06s0,0,0,.06,0,0,0,.06V58l0,.07a129390076257.53,129390076257.53,0,0,1,0,.12.13.13,0,0,0,0,.06l.1.36s0,0,0,.06,0,0,0,.06,0,0,0,0l0,.06s0,0,0,.06l.05.18s0,0,0,0,0,0,0,.06l.07.23s0,0,0,.06,0,0,0,.06l.07.23s0,0,0,.06l0,0s0,0,0,.07l.08.29s0,0,0,.05,0,0,0,.06l0,.11s0,0,0,.05,0,0,0,.06l0,.06s0,0,0,.06,0,0,0,.06l0,.11s0,0,0,.06,0,0,0,.06l0,.12s0,0,0,.05,0,0,0,.06l0,.13,0,0a.13.13,0,0,0,0,.06l.11.36s0,0,0,.05a.13.13,0,0,1,0,.06l0,.05s0,0,0,.06,0,0,0,.05l0,.06a.08.08,0,0,1,0,0l.05,0a0,0,0,0,1,0,0s0,0,0,.05A.14.14,0,0,1,165.79,62.4Z"/><path class="cls-7" d="M169.61,60.77v.07a.35.35,0,0,0,0,.06V61s0,0,0,.07v.06s0,0,0,.05,0,0,0,.06a.11.11,0,0,1,0,.06s0,0,0,.06l0,0s0,0,0,.06a.11.11,0,0,0,0,.06s0,0,0,.05l0,0,0,.05a.21.21,0,0,1,0,.06l0,.05s0,0,0,0l0,0a.13.13,0,0,1,0,.05l-.05,0,0,0,0,0L169,62a.1.1,0,0,0,0,.05l-.06,0s0,0,0,0l-.07,0,0,0-.16.07,0,0-.06,0h-.06l-.11.06h-.06l-.06,0h-.06l0,0-.06,0-.06,0-.22.1-.05,0s0,0,0,0l-.05,0,0,0-.05,0h-.06s0,0,0,0l-.06-.11s0,0,0-.05,0,0,0,0a.09.09,0,0,1,0-.05l0,0a.09.09,0,0,0,0,0s0,0,0-.06l0,0a.09.09,0,0,1,0-.05s0,0,0,0l0-.05,0,0,0-.06s0,0,0,0l0-.05,0,0,0,0s0,0,0-.05a.07.07,0,0,1,0-.06s0,0,0,0a.06.06,0,0,1,.06,0l.06,0h.05l.07,0h.53l0,0,.06,0,.06,0,.17-.07,0,0,0,0,0,0,.05,0,0,0,0,0,0,0,0,0,0-.06,0,0,0-.06s0,0,0,0a.08.08,0,0,1,0-.07V60.9s0,0,0,0v-.06s0,0,0-.06,0,0,0-.06v-.05a1648337093965.64,1648337093965.64,0,0,1,0-.12.13.13,0,0,1,0-.06.09.09,0,0,0,0,0l0-.06,0,0,0-.05,0,0,0,0-.05,0,0,0-.06,0L168,60,168,60s0,0-.06,0l-.06,0h-.06l-.06,0h-.06l-.05,0h-.12l-.07,0h-.11l-.06,0H167l-.05,0h-.12l-.06,0h-.06l-.06,0h-.12l-.06,0s0,0-.05,0l-.06,0h-.06a.06.06,0,0,0-.06,0,.05.05,0,0,0,0,0l-.06,0,0,0-.06,0a.1.1,0,0,0-.05,0l-.05,0,0,0s0,0,0,0l-.05,0s0,0,0,0,0,0-.05-.05l0,0,0,0a.1.1,0,0,1-.05,0s0,0,0-.05,0,0,0,0l0-.05,0,0,0,0a.07.07,0,0,0,0-.06l-.11-.22s0,0,0-.05a.43.43,0,0,0,0,0s0-.05,0-.06,0,0,0-.06,0,0,0-.06,0,0,0-.06v-.06a.43.43,0,0,1,0,0,.15.15,0,0,1,0-.07V58a.43.43,0,0,1,0,0s0,0,0-.06V57.8s0,0,0,0v-.06s0,0,0-.06a.15.15,0,0,0,0-.06.11.11,0,0,0,0-.06l0,0s0,0,0-.06,0,0,0,0l0-.06s0,0,0,0l0-.05s0,0,0,0l0,0,0-.05s0,0,0,0l.05,0s0,0,0,0,0,0,.05,0l0,0,0,0,.06,0a.1.1,0,0,1,0,0l.05,0,0,0,.11,0s0,0,.05,0l.06,0,.06,0,.1,0a.06.06,0,0,1,.06,0l.06,0,.06,0h.05l.06,0h.06l.06,0,0,0,.06,0,.1,0,.05,0s0,0,0,0,0,0,0,0,0,0,.05,0h.06s0,0,0,.05,0,0,0,0l0,.05,0,0s0,0,0,0l0,.11s0,0,0,.05a.09.09,0,0,0,0,0l0,.11,0,.05s0,0,0,.06a.09.09,0,0,1,0,.05l0,0s0,0,0,0l.05.11,0,.06s0,0,0,0a.1.1,0,0,1-.05,0s0,0-.06,0l-.05,0h-.67l0,0h-.13l-.11.05,0,0-.05,0-.05.05,0,0,0,.05s0,0,0,0,0,0,0,.06a.08.08,0,0,0,0,0s0,0,0,.06v.11a.15.15,0,0,0,0,.07.13.13,0,0,0,0,.06l0,.06s0,0,0,.05l0,.06a.13.13,0,0,1,0,.06l0,0s0,0,0,0l0,.05s0,0,.05,0l.05,0s0,0,0,0l.06,0,.05,0,0,0a.09.09,0,0,1,.06,0H167l.06,0h.23l.07,0h.06l.06,0h.06l.06,0h.06s0,0,.06,0l0,0h.07l.06,0s0,0,0,0H168l.07,0,.05,0h.06l.06,0h.06l0,0h.06l.06,0,.06,0,.05,0,0,0,.05,0s0,0,0,0l.06,0a.05.05,0,0,0,.05,0,.1.1,0,0,0,0,.05l.05,0,0,0,0,0,0,0,0,0,0,0,0,.05,0,0,0,.05,0,0,0,0,0,.05s0,0,0,0l0,.06,0,0a.13.13,0,0,0,0,.06l.08.16a.08.08,0,0,0,0,.06,0,0,0,0,0,0,0s0,0,0,.06a.17.17,0,0,0,0,.07s0,0,0,.06,0,0,0,.06,0,0,0,.05v.06s0,0,0,.07v.06S169.62,60.76,169.61,60.77Z"/><path class="cls-4" d="M151.91,56.75a17.34,17.34,0,0,0,.47,2.67h.05a7.23,7.23,0,0,0,2.79-1.08s-3-2.18-3.21-2.21h0C151.82,56.13,151.87,56.4,151.91,56.75Z"/><path class="cls-4" d="M179.74,59.91c-2.81,1-3,3.73-4.25,4.05s-1.13.59-.94.81a13.45,13.45,0,0,0,3,.16c1.62,0,3.56-.05,5-.16,2.78-.22,4.5-1.16,5.72-5a20.89,20.89,0,0,0-4.41-.47A12.55,12.55,0,0,0,179.74,59.91Z"/><path class="cls-7" d="M105.25,59s0,0,0,.06a.07.07,0,0,1,0,.06s0,0,0,0v.07a.14.14,0,0,1,0,.06s0,0,0,.06a.14.14,0,0,1,0,.06,377079650817.14,377079650817.14,0,0,0,0,.18s0,0,0,.06,0,0,0,.06a.13.13,0,0,1,0,.06.13.13,0,0,0,0,.06.14.14,0,0,0,0,.06s0,0,0,.06l0,0a.35.35,0,0,1,0,.06s0,.05,0,.06l-.08.23,0,.06-.06.17s0,0,0,.06,0,0,0,.05l-.13.34,0,.05-.07.17s0,0,0,.05l0,0,0,.06a.05.05,0,0,1,0,0s0,0,0,.06l0,0,0,.05,0,.06s0,0,0,.05l0,0,0,.05s0,0,0,.06a.05.05,0,0,0,0,.05.12.12,0,0,0-.05,0s0,0,0,.05,0,0,0,0l0,0a.1.1,0,0,1,0,0l0,.05,0,0a.08.08,0,0,1,0,0l0,.05,0,0-.05,0s0,0,0,0,0,0,0,0l0,0-.05,0s0,0,0,0,0,0,0,0l0,0-.06,0,0,0-.06,0-.06,0a.06.06,0,0,0,0,0l0,0-.06,0-.06,0-.07,0a.06.06,0,0,0,0,0h-.18s0,0-.06,0h-.36l-.06,0h-.06l-.06,0-.06,0-.17-.06s0,0-.06,0,0,0,0,0l-.06,0a.05.05,0,0,0,0,0l0,0-.06,0s0,0,0,0,0,0,0,0l-.05,0,0,0,0,0a.1.1,0,0,0-.05,0,.07.07,0,0,0,0,0s0,0,0-.05,0,0,0-.06,0,0,0,0,0,0,0-.05l0,0s0,0,0-.05a.13.13,0,0,1,0-.06s0,0,0-.05,0,0,0-.06,0,0,0-.05a.18.18,0,0,1,0-.06s0,0,0-.06,0,0,0-.06a.13.13,0,0,1,0-.06s0,0,0-.07,0,0,0-.05,0,0,0-.06v-.07a.11.11,0,0,0,0,0V61.3s0,0,0-.07v-.12s0,0,0-.06,0,0,0-.06a.06.06,0,0,1,0-.06v-.06s0,0,0-.06l0-.06a.07.07,0,0,1,0-.06s0,0,0-.06,0,0,0-.07a.15.15,0,0,1,0-.06s0,0,0-.06a.06.06,0,0,0,0-.06.08.08,0,0,0,0-.06.15.15,0,0,1,0-.06s0,0,0-.06l0-.05a2932841728592.8,2932841728592.8,0,0,0,0-.12l0-.06a.13.13,0,0,0,0-.06.09.09,0,0,1,0,0s0,0,0-.06a.35.35,0,0,1,0-.06l0-.12a.13.13,0,0,1,0-.06l.27-.67s0,0,0,0l0-.06,0-.05,0-.06a.05.05,0,0,1,0-.05l0-.06,0-.05,0-.06,0-.05a.05.05,0,0,1,0,0l0-.05,0-.06s0,0,0-.05a.21.21,0,0,0,0-.06s0,0,0,0l0-.06,0-.05s0,0,0,0l0,0,0-.05a.08.08,0,0,1,0,0l0,0,0-.05s0,0,0,0a.1.1,0,0,1,0,0s0,0,0,0a.1.1,0,0,0,0,0l.05,0,0,0,0,0,0-.05,0,0s0,0,0,0,0,0,0,0,0,0,0,0l0,0,.06,0,0,0,.06,0,0,0,.06,0,0,0,.06,0,.06,0h.06l.06,0h.61l.06,0h.06L104,57h.06l.22.09.06,0a.1.1,0,0,0,.05,0s0,0,0,0a.09.09,0,0,1,0,0l.06,0a.08.08,0,0,0,0,0s0,0,.05,0l0,0,0,0,0,.05s0,0,0,0l0,0,.05.06,0,0a.08.08,0,0,1,0,0l0,.05s0,0,0,.06a.09.09,0,0,0,0,0s0,0,0,.06a.08.08,0,0,0,0,.06.06.06,0,0,0,0,.05s0,0,0,.06,0,0,0,.06,0,0,0,.06a.13.13,0,0,0,0,.06.15.15,0,0,0,0,.06.13.13,0,0,0,0,.06v.07a.2.2,0,0,1,0,0v.13s0,0,0,.06,0,0,0,.05v.07a.11.11,0,0,1,0,0Zm-1.09-.36v-.07s0,0,0,0a.19.19,0,0,0,0-.07.07.07,0,0,0,0-.05.17.17,0,0,0,0-.07s0,0,0,0a.11.11,0,0,0,0-.06l0-.06s0,0,0,0a.12.12,0,0,0,0-.05,0,0,0,0,0,0,0s0,0-.05,0l-.11-.05h-.31s0,0-.05,0l0,0-.06,0,0,0,0,0-.05,0,0,0,0,0,0,.06s0,0,0,0,0,0,0,0l0,0s0,0,0,.05l0,0s0,0,0,.05l0,.06s0,0,0,.05l0,0,0,.05a.07.07,0,0,0,0,.06s0,0,0,.05l0,.06,0,.11s0,0,0,.05l0,.06s0,0,0,.05a.09.09,0,0,1,0,.06l-.31.78s0,0,0,.06l-.07.17s0,0,0,.06,0,0,0,.06l0,.06a.08.08,0,0,1,0,0,.35.35,0,0,1,0,.06s0,0,0,.06a.06.06,0,0,1,0,.06l0,.06s0,0,0,.06l0,.06s0,0,0,.06a293284172860.35,293284172860.35,0,0,0,0,.12.13.13,0,0,1,0,.06v.06a.13.13,0,0,0,0,.06.11.11,0,0,0,0,.06.17.17,0,0,1,0,.07.43.43,0,0,0,0,0s0,.05,0,.06v.07l0,.05s0,0,0,0l0,.06s0,0,0,0l0,0,0,0,0,0,.06,0,0,0,.06,0h.29l.06,0,.06,0,0,0,.06,0,0,0s0,0,0,0l.05-.05a0,0,0,0,0,0,0,.1.1,0,0,0,0,0l0-.05,0,0s0,0,0,0l0-.05s0,0,0,0l0,0,0-.06,0-.05,0,0a.05.05,0,0,1,0,0s0-.05,0-.06l0-.06a.05.05,0,0,0,0,0l0-.06a.09.09,0,0,1,0,0l0-.05,0-.06.09-.22,0-.05a.15.15,0,0,0,0-.06l0-.06.06-.17s0,0,0-.06l.11-.28a.13.13,0,0,1,0-.06s0,0,0-.05l0-.12a.35.35,0,0,0,0-.06l0,0a.14.14,0,0,0,0-.06l0-.06s0,0,0-.06l0,0a.17.17,0,0,0,0-.07l0-.05s0,0,0-.06,0,0,0-.06,0-.05,0-.06a.06.06,0,0,1,0-.06s0,0,0-.06,0,0,0-.06v-.07s0,0,0-.06S104.15,58.63,104.16,58.61Z"/><path class="cls-7" d="M109.43,59.93s0,0,0,.06a.13.13,0,0,0,0,.06.14.14,0,0,0,0,.06l0,.12s0,0,0,.06,0,0,0,.06v0a.09.09,0,0,0,0,.05s0,0,0,.06a.09.09,0,0,1,0,.06.05.05,0,0,1,0,0s0,0,0,.06a.09.09,0,0,0,0,.06.09.09,0,0,0,0,.05l0,0s0,0,0,.05,0,0,0,0l0,0s0,0,0,0l0,.05,0,0,0,0a.1.1,0,0,0,0,0l0,0,0,0,0,0s0,0,0,0l0,0a.07.07,0,0,0-.06,0l0,0s0,0,0,0a.06.06,0,0,0,0,.06s0,0,0,.06a.09.09,0,0,0,0,0v.07s0,0,0,.06a.11.11,0,0,1,0,0l0,.13a.13.13,0,0,0,0,.06.11.11,0,0,0,0,0l0,.13v0l0,.13s0,0,0,0l0,.12v.06l0,.19V63l0,.05v.07s0,0,0,.06v.11s0,0,0,.07,0,0,0,.05v.19l0,0a.13.13,0,0,0,0,.06.15.15,0,0,0,0,.07s0,0,0,.06a.07.07,0,0,1,0,0s0,0,0,.07l0,.06s0,0,0,.06a.14.14,0,0,0,0,.06s0,0,0,0a.08.08,0,0,0,0,.06l0,.06a.14.14,0,0,1,0,.06l0,0a.14.14,0,0,1,0,.06l0,0,0,0h0l-1.17-.19-.06,0a.08.08,0,0,1,0,0s0,0,0-.05v-.07s0,0,0-.06,0,0,0-.06a.14.14,0,0,1,0-.06l0-.06s0,0,0-.06a.06.06,0,0,0,0-.06.09.09,0,0,0,0-.07v-.06l0-.06v-.06s0-.05,0-.07,0,0,0-.06a.07.07,0,0,1,0,0s0,0,0-.07v-.06a.09.09,0,0,1,0,0v-.06s0,0,0-.07a.11.11,0,0,0,0,0V63s0,0,0-.06a.13.13,0,0,1,0-.06s0,0,0-.06v-.06l0,0,0-.13a0,0,0,0,0,0,0v-.07s0,0,0-.06a.11.11,0,0,1,0,0s0,0,0-.06l0-.07-.06,0s0,0-.07,0h-.07l0,0-.05,0-.06,0s0,0-.05,0l-.06,0-.05,0s0,0,0,.06,0,0,0,.06l-.18,1.11s0,0,0,.06v.07s0,0,0,.06a.06.06,0,0,1,0,.06.2.2,0,0,1,0,.07s0,0,0,.06,0,0,0,0a.08.08,0,0,0,0,.06s0,0,0,.06a.06.06,0,0,1,0,0s0,0,0,0a0,0,0,0,1-.05,0l-1.25-.2a.07.07,0,0,1-.06,0,.08.08,0,0,1,0,0l0,0,0,0,.08-.11a.09.09,0,0,1,0-.05.05.05,0,0,1,0,0,.07.07,0,0,1,0-.06v-.07l0-.06v-.06s0,0,0-.06,0,0,0-.06a.14.14,0,0,0,0-.06l0-.13s0,0,0-.06,0,0,0-.06l.06-.35s0,0,0-.06,0,0,0-.06l.06-.41s0,0,0-.07,0,0,0,0l.1-.66s0,0,0-.06,0,0,0-.06l.07-.48s0,0,0-.06,0,0,0-.06,0,0,0-.06,0,0,0-.06l0-.12s0,0,0-.06v-.06s0,0,0-.06l0-.3s0,0,0-.06,0,0,0,0l0-.24s0,0,0-.06,0,0,0-.06l.08-.54s0-.05,0-.07v-.06s0,0,0-.06,0,0,0-.06V58.5a.16.16,0,0,1,0-.07.13.13,0,0,0,0-.06.16.16,0,0,0,0-.07s0,0,0-.06a.08.08,0,0,1,0-.05.16.16,0,0,0,0-.06s0,0,0-.06,0,0,0,0,0,0,.06,0a0,0,0,0,1,0,0l1.33.21h.07l.06,0,.31.05.06,0s0,0,.06,0,0,0,.06,0h.06l0,0,.06,0,0,0s0,0,.06,0l.06,0,.06,0,0,0,.06,0,0,0s0,0,0,0l0,0s0,0,0,0l0,0,0,.05,0,0,0,.05s0,0,0,0,0,0,0,0a.11.11,0,0,0,0,.05s0,0,0,.06l0,.05a.07.07,0,0,0,0,.06s0,0,0,.05a.14.14,0,0,1,0,.06s0,0,0,0a.2.2,0,0,1,0,.07l0,0a.13.13,0,0,0,0,.06.07.07,0,0,0,0,.06s0,0,0,.06,0,0,0,.06,0,0,0,.06,0,0,0,.07a.06.06,0,0,1,0,.06A.06.06,0,0,1,109.43,59.93Zm-1.17-.16a.07.07,0,0,0,0-.06.2.2,0,0,0,0-.07s0,0,0,0a.14.14,0,0,1,0-.06l0-.05,0,0s0,0,0,0l0,0-.06,0,0,0a.07.07,0,0,0-.06,0l-.06,0h-.06l0,0-.22,0h-.06l-.06,0,0,0s0,0,0,.06l0,.37s0,0,0,.06,0,0,0,.06l-.17,1.09a.11.11,0,0,0,0,.06.06.06,0,0,0,0,0l0,.05h0s0,0,0,0h0l.06,0a.08.08,0,0,1,.06,0l0,0,0,0,0,0,.06,0,0,0,.06,0,0,0a.05.05,0,0,1,.05,0l0,0,0,0s0,0,.05,0l0,0,0,0,0-.05,0,0s0,0,0-.06l0,0s0,0,0,0a.09.09,0,0,1,0-.06.14.14,0,0,1,0-.06v-.06s0,0,0-.06V60s0,0,0-.06,0,0,0-.06A.06.06,0,0,0,108.26,59.77Z"/><path class="cls-7" d="M100.7,56.68l0,0,0,0-.06,0s0,0-.06,0l0,0,0,0-.16-.08s0,0-.06,0h-.06s0,0-.05,0l0,0,0,.06s0,0,0,0l0,.05s0,0,0,.06,0,0,0,.05,0,0,0,.06l0,.06s0,0,0,.05,0,0,0,0l0,.11s0,0,0,0l0,.06s0,0,0,.06,0,0,0,0,0,0,0,.06l-.08.16s0,0,0,.06v.06s0,0,0,0,0,0,.05,0l.13.07s0,0,0,0l.06,0,.12.06.06,0h.06l.06,0a.11.11,0,0,0,.06,0h.25s0,0,0,0l0,0a.11.11,0,0,1,0,.06,0,0,0,0,1,0,0l0,.05s0,0,0,.06,0,0,0,0l0,0s0,.05,0,.06l0,0,0,.06,0,.05,0,0s0,0,0,.06l0,.11,0,0a.13.13,0,0,1,0,.06l0,0s0,0,0,.06l0,.1s0,0,0,0,0,0,0,0h0s0,0,0,0l0-.06s0,0,0,0l0,0a.1.1,0,0,0,0,0l0,0-.06,0,0,0,0,0-.12-.05a.1.1,0,0,0,0,0l-.1,0h-.05l0,0-.06,0h-.06s0,0,0,0a.1.1,0,0,0,0,.05l0,.1s0,0,0,0l0,0s0,0,0,.06l0,.06s0,0,0,0l0,.05s0,0,0,.06l-.07.16,0,0,0,.06s0,0,0,.06l0,0-.1.22,0,.05,0,.06s0,0,0,.05l-.1.21a.64.64,0,0,1,0,.07l0,.05a.11.11,0,0,0,0,.06.08.08,0,0,0,0,.06l0,.05a.19.19,0,0,1,0,.07.11.11,0,0,0,0,.06s0,0,0,.06,0,0,0,.06a0,0,0,0,0,0,0s0,0,0,.07v.06a.06.06,0,0,1,0,.06l0,0A.11.11,0,0,1,98,61H98l-1.15-.56,0,0s0,0,0,0a.06.06,0,0,1,0-.05l0,0,0,0a.07.07,0,0,0,0,0,.09.09,0,0,0,0,0,.1.1,0,0,1,0,0L97,60l0,0,0-.06,0,0,.08-.16,0-.06s0,0,0-.06,0,0,0-.05,0,0,0-.06,0,0,0-.05l.05-.1s0,0,0-.06,0,0,0-.05,0,0,0-.06l0-.11s0,0,0-.05,0,0,0-.06,0,0,0-.05l0,0s0,0,0-.06l.06-.11s0,0,0,0l0-.06s0,0,0,0l0-.05.1-.22s0,0,0-.06l0-.06s0,0,0-.05l0-.11s0,0,0-.06l0,0,0,0,0-.06s0,0,0,0l0-.05s0,0,0-.06,0,0,0-.05l0-.06s0,0,0-.06,0,0,0-.05,0,0,0-.06,0,0,0-.05l.16-.32s0,0,0-.06l0-.06,0,0s0,0,0-.06l0-.05s0,0,0-.06l0,0,.15-.32,0-.06s0,0,0,0,0,0,0-.06,0,0,0,0L99,56l0-.06,0-.11a.15.15,0,0,0,0-.06s0,0,0,0a.14.14,0,0,0,0-.06l.06-.11s0,0,0-.06a.11.11,0,0,0,0-.07.14.14,0,0,0,0-.06s0,0,0-.06,0,0,0-.06,0,0,0-.06a.13.13,0,0,0,0-.06.13.13,0,0,1,0-.06l0,0a.05.05,0,0,1,0,0h0l.06,0,.06,0,0,0,.06,0,1,.49s0,0,0,0l.05,0,.06,0,.06,0,.05,0h0l.27.13s0,0,0,0l.17.08.06,0h.06l0,0h.07l0,0s0,0,0,.05,0,0,0,.06a.13.13,0,0,1,0,.06.11.11,0,0,0,0,.06.13.13,0,0,1,0,.06s0,0,0,.06,0,0,0,.06a.13.13,0,0,0,0,.06s0,0,0,.06a.14.14,0,0,0,0,.06s0,0,0,0,0,0,0,.06a.14.14,0,0,0,0,.06s0,0,0,.06,0,0,0,.07a.08.08,0,0,0,0,0,.13.13,0,0,0,0,.06s0,0,0,.06a.14.14,0,0,1,0,.06.06.06,0,0,1,0,.05l0,0s0,0,0,0l0,0s0,0,0,0l0-.05s0,0,0,0,0,0,0,0l0,0,0,0-.06,0,0,0,0,0-.06,0,0,0-.11-.05s0,0,0,0Z"/><path class="cls-4" d="M157.55,58.78a.75.75,0,0,0-.35-.59L152.43,55a.32.32,0,0,0,.08.09c.09.08.44.33.84.62,3.06,2.17,3.77,2.85,3.49,3.32a.28.28,0,0,1-.13.11c-9.49,3.94-14.06,4-21.65,4.24h-.18c-7.58-.19-12.16-.3-21.65-4.24a.28.28,0,0,1-.13-.11c-.28-.47.44-1.15,3.49-3.32.4-.29.75-.54.84-.62a.22.22,0,0,0,.08-.09l-4.77,3.15a.84.84,0,0,0-.35.59c0,.29-.29,9-.31,9.32a1.39,1.39,0,0,0,.7,1.24l.06,0a49.78,49.78,0,0,0,44.26,0l.06,0a1.37,1.37,0,0,0,.7-1.24C157.85,67.79,157.56,59.07,157.55,58.78Z"/><path class="cls-7" d="M118.24,64.14l-.07,0h-.06l-.06,0-.06,0-.07,0,0,0s0,0,0,0l0,.06s0,0,0,0,0,0,0,.07l-.12.36s0,0,0,.06,0,0,0,.06l-.17.48s0,0,0,.06,0,0,0,.06l0,.06s0,0,0,.06,0,0,0,.06,0,0,0,.06l0,.06s0,0,0,.06l-.11.3,0,.06s0,0,0,.06l-.09.24s0,0,0,.06l0,.06s0,0,0,.07l-.11.3s0,0,0,0l0,.12s0,0,0,.07,0,0,0,0,0,0,0,.07,0,0,0,0,0,0,0,.07l0,.06s0,0,0,0,0,0,0,.07l-.3.84a.07.07,0,0,1,0,.06.22.22,0,0,1,0,.08.07.07,0,0,0,0,.06.08.08,0,0,0,0,.07.06.06,0,0,0,0,.06.17.17,0,0,0,0,.07s0,0,0,.06a.07.07,0,0,0,0,.06s0,.05,0,.07,0,0,0,0,0,0,0,0h-.06l-1.26-.45,0,0s0,0,0,0V68.5a.08.08,0,0,1,0,0l.05,0,0,0a.1.1,0,0,1,0-.05l0-.06,0-.06a.07.07,0,0,0,0,0,.43.43,0,0,0,0-.07l0-.06s0,0,0,0l.25-.72s0,0,0-.07,0,0,0-.05l.08-.25s0,0,0-.06,0,0,0-.06l0-.06s0,0,0-.06l0-.06.06-.18s0,0,0-.06l0-.06s0,0,0-.06l0-.06s0,0,0-.06l0-.06s0,0,0-.06,0,0,0-.06l0-.12s0,0,0-.06,0,0,0-.06l.11-.3s0,0,0-.06,0,0,0-.06l0-.12s0,0,0-.06l0-.06s0,0,0-.07,0,0,0,0l0-.06s0,0,0-.07l0-.06s0,0,0,0l.17-.48s0,0,0-.07,0,0,0,0l.06-.18s0,0,0-.07,0,0,0-.06a.11.11,0,0,0,0,0,.11.11,0,0,0,0-.06.07.07,0,0,0,0,0s0,0,0,0l-.07,0-.06,0h-.06s0,0-.06,0l-.06,0h-.06l-.12,0H116s0,0-.06,0h-.25s0,0-.06,0h-.12s0,0,0,0,0,0,0,0a.11.11,0,0,1,0-.06l0,0s0,0,0-.06l0,0,0-.06,0,0s0,0,0-.06l0-.06,0,0s0,0,0-.05a.1.1,0,0,0,0,0l0-.06a.1.1,0,0,1,0,0s0,0,0-.06l0,0s0,0,0-.06l0,0a.09.09,0,0,1,0,0s0,0,.06,0,0,0,.07,0l.05,0,0,0a.09.09,0,0,0,.06,0,.05.05,0,0,0,0,0l.06,0,.06,0,.9.32.06,0h.07l1,.37s0,0,.06,0l.06,0s0,0,0,0l.07,0s0,0,.06,0h.19l.06,0s0,0,0,0l0,.06s0,0,0,.06a.13.13,0,0,0,0,.06.08.08,0,0,0,0,.07.13.13,0,0,0,0,.06s0,0,0,.07,0,0,0,.06a.17.17,0,0,1,0,.07.13.13,0,0,1,0,.06V64a.13.13,0,0,1,0,.06.08.08,0,0,1,0,.07s0,0,0,.06,0,0,0,.07a.13.13,0,0,0,0,.06.08.08,0,0,0,0,.07.07.07,0,0,0,0,.06.17.17,0,0,0,0,.07s0,0,0,0,0,0,0,0H119s0,0,0,0,0,0,0,0l-.06,0s0,0,0,0,0,0,0,0l-.06,0s0,0-.06,0l0,0s0,0-.06,0l-.24-.08Z"/><path class="cls-7" d="M123.29,65.76l-.16.61s0,0,0,.06,0,0,0,.06l0,.13s0,0,0,.06v.06s0,0,0,.06l-.19.75s0,0,0,0v.07s0,0,0,.06l-.11.43s0,0,0,.06,0,0,0,.07v.06s0,0,0,.06,0,0,0,.06,0,0,0,.06,0,0,0,.07l0,.12,0,.06s0,0,0,.06l0,.13,0,.06s0,0,0,.06l0,.12s0,0,0,.06,0,0,0,.07v0l0,.06s0,0,0,.06l-.07.25s0,0,0,.06,0,0,0,.06l-.06.26s0,0,0,.07,0,.05,0,.07a.17.17,0,0,1,0,.07s0,0,0,.06,0,0,0,.07,0,0,0,.06,0,0,0,.06a.09.09,0,0,0,0,.06.15.15,0,0,1,0,.07s0,0,0,0l0,0-.06,0s0,0-.06,0l-1.23-.32a.1.1,0,0,1-.05,0l0,0v0s0,0,0,0l0-.06,0,0,0,0,0-.06,0-.06s0,0,0-.06a.09.09,0,0,0,0-.07l0-.06a.14.14,0,0,0,0-.06l0-.12v-.08l0-.06.21-.8s0,0,0-.07,0,0,0-.06l.06-.24s0,0,0-.07a.49.49,0,0,1,0-.07l.09-.37a.13.13,0,0,0,0-.06l0,0s0,0,0-.06l-.06,0-.13,0h-.06l-.14,0-.06,0-.24-.07s0,0-.07,0l-.06,0-.12,0h-.13l0,0,0,0s0,0,0,.06l-.07.25s0,0,0,.06,0,0,0,.06l0,.08s0,0,0,.06,0,0,0,.06l-.11.43s0,0,0,.06,0,0,0,.07l0,.06s0,0,0,.06l-.18.69s0,0,0,.07,0,0,0,.07,0,0,0,.07,0,0,0,.06,0,0,0,.07v.06s0,0,0,.06l0,.07s0,0,0,.06,0,0,0,0,0,0,0,0h0l-.44-.11h-.06l-.06,0-.73-.19s0,0-.06,0,0,0,0,0a.15.15,0,0,1,0-.06s0,0,0,0a.13.13,0,0,0,0-.06l.05,0s0,0,0-.06,0,0,0-.05,0,0,0-.06,0,0,0-.06,0,0,0-.07l0-.12s0-.05,0-.07,0,0,0,0l0-.14s0,0,0-.06l0-.07s0,0,0-.05,0,0,0-.06,0,0,0-.06l.13-.49s0,0,0-.07,0,0,0-.06l.14-.55s0,0,0-.07,0,0,0-.06l.08-.31s0,0,0-.06,0,0,0-.06l.06-.25s0,0,0-.06,0,0,0-.06l.14-.56s0,0,0-.06,0,0,0-.06v-.06s0,0,0-.07,0,0,0-.06l0-.06s0,0,0-.06,0,0,0,0l.06-.25s0,0,0-.06,0,0,0-.06l.18-.69a.15.15,0,0,0,0-.07v-.06a.19.19,0,0,0,0-.07.17.17,0,0,1,0-.07.2.2,0,0,0,0-.07s0,0,0-.06,0,0,0-.07,0,0,0-.06V63.8a.14.14,0,0,1,0-.06s0,0,0-.05a.09.09,0,0,1,0,0H120l.55.15.06,0h.06l.06,0h.07l.49.13,0,0s0,0,0,0,0,0,0,0a.1.1,0,0,1,0,.05l0,0,0,0,0,0,0,.06a.21.21,0,0,0,0,.06l0,.06,0,.13s0,0,0,.06l0,.12a.11.11,0,0,0,0,.07l0,.07s0,0,0,0,0,0,0,.07,0,0,0,.06,0,0,0,.06l0,.06s0,0,0,.06,0,0,0,.07l0,.11s0,0,0,.06,0,0,0,.07,0,0,0,0,0,0,0,.07l-.09.36,0,.06s0,0,0,.06a.15.15,0,0,0,0,.07s0,0,0,0,0,0,0,0l.06,0,.44.11h.06l.06,0,.07,0h.07s0,0,.06,0,0,0,.06,0l.06,0h.06a.09.09,0,0,0,.06,0s0,0,0,0a.11.11,0,0,0,0-.06l0-.06s0,0,0-.06,0,0,0-.06L122,66s0,0,0-.07,0,0,0-.06l0-.11s0,0,0-.06l0-.06s0,0,0-.07l0-.06s0,0,0-.06l0-.06s0,0,0-.06,0,0,0,0l0-.2V65l0-.07v-.06l0-.06s0-.06,0-.08,0,0,0-.06a.17.17,0,0,0,0-.07s0,0,0-.06v-.07s0,0,0-.06,0,0,0-.06l0,0,.05,0h0l.18,0,.06,0h.13l.92.24a.07.07,0,0,1,.05,0s0,0,0,0v0a.14.14,0,0,1,0,.06.13.13,0,0,0-.06,0s0,0,0,.05l0,0s0,0,0,.06,0,0,0,.06,0,0,0,.07,0,0,0,.06,0,0,0,.06,0,0,0,.06a.14.14,0,0,1,0,.06Z"/><path class="cls-7" d="M127.33,66.38l0,0s0,0-.06,0l0,0-.05,0-.06,0,0,0-.06,0s0,0-.06,0l-.06,0,0,0-.06,0-.19,0-.06,0h-.07s0,0-.06,0,0,0-.06,0h-.07s0,0-.06,0,0,0-.06,0l-.19,0-.06,0s0,0-.07,0,0,0-.06,0,0,0-.07,0a.06.06,0,0,0-.06,0s0,0-.06,0l0,0s0,0,0,0l-.06.43s0,0,0,.06,0,0,0,.07l-.07.43s0,0,0,.06,0,0,0,.06,0,0,0,.06l0,0s0,0,0,0l.06,0,.48.07s0,0,.06,0H126s0,0,.06,0h.21s0,0,0,0h.07l.07,0,0,0,0,0s0,0,0,0a.09.09,0,0,1,0,.07l-.17,1.11a.09.09,0,0,1,0,0s0,0,0,0h-.05s0,0-.06,0l-.05,0,0,0-.06,0-.06,0-.06,0-.07,0-.06,0-.13,0a.07.07,0,0,1-.06,0s0,0-.07,0l-.07,0-.27,0h-.07s0,0-.06,0l0,0s0,0,0,0,0,0,0,.06,0,0,0,.06l0,.19c0,.05,0,0,0,.08s0,0,0,.06v.06s0,0,0,.06,0,0,0,.07l0,.19s0,0,0,.06,0,0,0,.07l0,.31s0,0,0,.06,0,0,0,.08V70s0,0,0,.06a.06.06,0,0,0,0,.06s0,0,0,.06,0,0,.05,0l.06,0,.13,0s0,0,.06,0l0,0h.07s0,0,.06,0h.06s0,0,.07,0l.12,0s0,0,.07,0l.19,0,.06,0h.19a.06.06,0,0,1,.06,0h.26s0,0,0,0h.06l.06,0,.06,0s0,0,0,0a0,0,0,0,1,0,0s0,.05,0,.06a.19.19,0,0,1,0,.07s0,0,0,.06a.07.07,0,0,1,0,.06.14.14,0,0,1,0,.06,295224554146.13,295224554146.13,0,0,1,0,.12.14.14,0,0,0,0,.06l0,.06s0,0,0,.06,0,0,0,.05,0,0,0,.06a.14.14,0,0,0,0,.07l0,.06s0,0,0,.06,0,0,0,.06,0,0,0,.06l-.06,0a.08.08,0,0,1-.07,0l-.06,0,0,0-.06,0-.06,0h-.07l-.06,0-.31,0s0,0-.07,0l0,0h-.13l-.06,0-1.77-.28-.05,0s0,0,0,0a.21.21,0,0,1,0-.06l0,0,0,0a.07.07,0,0,0,0-.06.07.07,0,0,0,0,0,.07.07,0,0,0,0-.06s0,0,0-.06a.45.45,0,0,0,0-.08s0,0,0-.06a.14.14,0,0,1,0-.06l0-.12a.19.19,0,0,1,0-.07l0-.2s0,0,0-.06l0-.12s0,0,0-.06l0-.12s0,0,0-.07,0,0,0-.06l.06-.38s0,0,0-.06,0,0,0-.06V69s0,0,0-.06,0,0,0-.06,0,0,0-.07,0,0,0-.06,0,0,0-.07,0,0,0-.06,0,0,0-.06,0,0,0-.06l0-.32s0,0,0-.06,0,0,0-.06l.1-.64s0,0,0-.06,0,0,0-.06l0-.13s0,0,0-.06l0-.13s0,0,0-.06v-.06s0,0,0-.07v-.06s0,0,0-.06l0-.12s0,0,0-.06,0,0,0-.06,0,0,0-.07v-.06s0,0,0-.06,0,0,0-.07,0,0,0-.06,0,0,0-.06v-.07s0,0,0-.06,0,0,0-.06,0,0,0-.07,0,0,0-.06,0,0,0-.07v-.07s0,0,0-.06,0,0,0-.07,0,0,0-.06,0,0,0-.06v-.08s0,0,0-.06a.09.09,0,0,1,0-.07.13.13,0,0,1,0-.06l0-.06a.1.1,0,0,0,0-.07s0,0,0-.05,0,0,0-.06,0,0,0,0,.05,0,.06,0l1.14.18.06,0h.06l.89.14.06,0h.06l.19,0a.16.16,0,0,1,.07,0h.18s0,0,.07,0,0,0,.06,0l0,0a.08.08,0,0,1,0,.06s0,0,0,.06a.17.17,0,0,0,0,.07s0,0,0,.06,0,.05,0,.07,0,0,0,.06,0,0,0,.07,0,0,0,.06,0,0,0,.07,0,0,0,.05a.25.25,0,0,1,0,.07s0,0,0,.07a.06.06,0,0,0,0,.06.08.08,0,0,0,0,.07.06.06,0,0,0,0,.06.2.2,0,0,0,0,.07s0,0,0,.06Z"/><path class="cls-7" d="M133.53,66.81a.08.08,0,0,1,0,0,.08.08,0,0,1-.07,0h-.05s0,0,0,0l-.07,0a.09.09,0,0,0-.05,0h-.06l-.06,0-.07,0H133l-.05,0a.16.16,0,0,0-.07,0h-.56s0,0-.07,0h-.36l-.05,0,0,0a.09.09,0,0,0,0,0v.07s0,0,0,.06V67s0,0,0,.07,0,0,0,.06,0,0,0,.07v.06s0,0,0,.06,0,0,0,.07v.12s0,0,0,.07v.06s0,0,0,.07,0,0,0,.06,0,0,0,.06V68a.13.13,0,0,0,0,.06l0,0a.07.07,0,0,0,.05,0h.29s0,0,.06,0h.21a.06.06,0,0,0,.06,0h.13l.06,0h.07s0,0,.06,0l.06,0,0,0h.05a.07.07,0,0,1,0,0,.08.08,0,0,1,0,.05s0,0,0,.06,0,.05,0,.07,0,0,0,.06v.06s0,0,0,.07,0,0,0,.06v.07s0,0,0,.05,0,0,0,.06,0,.05,0,.07v.12s0,0,0,.07,0,0,0,.06,0,0,0,.07,0,0,0,.06v.13a.08.08,0,0,1,0,0l-.05,0h0l-.06,0-.06,0-.05,0-.06,0h-.07l-.06,0h-.13l-.06,0h-.14l-.06,0h-.29s0,0,0,0,0,0,0,0a.17.17,0,0,0,0,.07v.11s0,0,0,.07v.06s0,0,0,.07v.06s0,0,0,.06v.07s0,0,0,.06v.19s0,0,0,.07v.06s0,0,0,.06,0,0,0,.07v.25s0,0,0,.07v.06s0,0,0,.06V71s0,0,0,.07v.07a.07.07,0,0,0,0,.06.2.2,0,0,0,0,.07v.06s0,0,0,.08a.06.06,0,0,0,0,.06s0,0,0,.06a.64.64,0,0,0,0,.07.08.08,0,0,0,0,0s0,0,0,.07l0,.06a.11.11,0,0,1,0,.06.06.06,0,0,1,0,.05.08.08,0,0,1,0,0h0l-1.34-.06s0,0-.06,0l0,0a.11.11,0,0,1,0,0,.15.15,0,0,1,0-.07l0,0,0-.06,0,0a.19.19,0,0,1,0-.07s0,0,0-.06,0,0,0-.06v-.08a.14.14,0,0,1,0-.06v-.19s0,0,0-.08,0,0,0-.06,0,0,0-.06,0,0,0-.07,0,0,0-.06v-.12s0,0,0-.06,0,0,0-.07,0,0,0-.06v-.13s0,0,0-.06,0,0,0-.07,0,0,0-.06V70s0,0,0-.07v-.13s0,0,0-.06v-.06s0,0,0-.07,0,0,0-.06v-.26s0,0,0-.06v-.06s0,0,0-.07V69s0,0,0-.06,0,0,0-.06v-.07s0,0,0-.06,0,0,0-.06v-.07s0,0,0-.06,0,0,0-.07v-.06s0,0,0-.06,0,0,0-.07,0,0,0-.06,0,0,0-.07V67.8s0,0,0-.06v-.07s0,0,0-.06,0,0,0-.06,0,0,0-.07,0,0,0-.06,0,0,0,0l0-.39s0,0,0-.06,0,0,0-.07,0,0,0-.06,0,0,0-.06v-.07s0,0,0-.06v-.13s0,0,0-.07,0-.05,0-.07,0,0,0-.06v-.13s0,0,0-.06a.17.17,0,0,0,0-.08.13.13,0,0,0,0-.06s0,0,0-.07l0-.05a.19.19,0,0,0,0-.07l0,0a.19.19,0,0,1,0-.07.11.11,0,0,1,0,0s0,0,.05,0h.3l1.2.06h.12a.16.16,0,0,0,.07,0h.13s0,0,.05,0h.32s0,0,.06,0H133s0,0,.06,0h.06l.06,0h.06l.07,0,.05,0a.19.19,0,0,1,0,.07.13.13,0,0,0,0,.06.16.16,0,0,1,0,.07s0,0,0,.06,0,0,0,.06,0,.05,0,.07,0,0,0,.06a.17.17,0,0,0,0,.07s0,0,0,0a.64.64,0,0,1,0,.07.13.13,0,0,0,0,.06s0,0,0,.07,0,0,0,.06a.13.13,0,0,0,0,.06s0,0,0,.07,0,0,0,.06a.17.17,0,0,1,0,.07A0,0,0,0,1,133.53,66.81Z"/><path class="cls-7" d="M138.17,70.88l0,.05,0,.07,0,0,0,0,0,.06,0,0s0,.05,0,.06l0,0s0,0,0,.05a.08.08,0,0,1,0,0l0,0a.21.21,0,0,1,0,.06l0,0a.29.29,0,0,0-.09.09s0,0-.06,0,0,0,0,0l-.06,0-.05,0,0,0-.06,0-.05,0-.06,0-.06,0,0,0H137L137,72h-.06l-.06,0h-.06l-.07,0h-.06l-.06,0h-.89l0,0h-.07l-.06,0-.07,0h0l-.06,0h-.07l-.05,0-.06,0-.06,0,0,0-.06,0-.05,0-.05,0a.08.08,0,0,1,0,0l-.06,0s0,0-.05,0l0,0a.13.13,0,0,1-.06,0s0,0,0,0l0-.06,0,0,0,0,0,0,0,0,0-.06,0,0a.13.13,0,0,1,0-.05l0,0,0-.07a.08.08,0,0,1,0-.05.17.17,0,0,1,0,0,.11.11,0,0,1,0-.06l0-.06s0,0,0-.06,0,0,0-.06,0,0,0-.06,0,0,0-.07a.06.06,0,0,0,0-.06.2.2,0,0,1,0-.07v-.06s0,0,0-.06v-.21s0,0,0-.06,0,0,0-.06,0,0,0-.07v-.06s0,0,0-.08v-.06s0,0,0-.06,0,0,0-.06,0,0,0-.06v-.07s0,0,0-.06v-.32s0,0,0-.06v-.26s0,0,0-.06v-.19s0,0,0-.07v-.06s0,0,0-.07v-.06s0,0,0-.06,0,0,0-.07V68s0,0,0-.06,0,0,0-.06,0,0,0-.07,0,0,0-.06v-.13s0,0,0-.06,0,0,0-.07,0,0,0-.06,0,0,0-.06v-.07s0,0,0-.06v-.07s0,0,0-.06v-.19s0,0,0-.07v-.06s0,0,0-.06,0,0,0-.07v-.07s0,0,0-.07v-.12s0-.05,0-.07a.07.07,0,0,1,0-.06.15.15,0,0,0,0-.07s0,0,0-.07a.13.13,0,0,1,0-.06.09.09,0,0,1,0-.07l0,0,0,0s0,0,0-.06a.14.14,0,0,1,0-.06l0,0,.06,0,1.34,0h0l.05,0s0,0,0,0,0,0,0,.06l0,.06s0,0,0,.07,0,0,0,.05l0,.06a.15.15,0,0,1,0,.07s0,0,0,.07v.07s0,0,0,.06a.14.14,0,0,0,0,.07s0,0,0,.06,0,0,0,.06,0,.06,0,.08v.13s0,0,0,.06,0,0,0,.06v.07s0,0,0,.06v.13s0,0,0,.06v.07s0,0,0,.06,0,0,0,.06,0,0,0,.07v.19s0,0,0,.06,0,0,0,.07v.06s0,0,0,.07,0,0,0,.06v.38s0,0,0,.07,0,0,0,.06v.13s0,0,0,.06v.07s0,0,0,.06v.32s0,0,0,.06,0,0,0,.07v.19s0,0,0,.06,0,0,0,.07v.57s0,0,0,.07v.06s0,0,0,.06v.26a.07.07,0,0,0,0,.06.17.17,0,0,0,0,.07.07.07,0,0,0,0,0,.14.14,0,0,0,0,.06.21.21,0,0,0,0,.07l0,.05,0,0,.05,0a.1.1,0,0,0,.05,0l0,0,.07,0s0,0,.05,0l.07,0h.19l.06,0h.07l.05,0,.06,0s0,0,.06,0l0,0,.05,0,0-.06,0,0a.33.33,0,0,0,0-.06.14.14,0,0,0,0-.06s0,0,0-.05a.17.17,0,0,0,0-.07s0,0,0-.06v-.26s0,0,0-.06,0,0,0-.06V70s0,0,0-.06,0,0,0-.06v-.07s0,0,0-.06,0,0,0-.07,0,0,0-.06v-.06s0,0,0-.07,0,0,0-.06,0,0,0-.07,0,0,0-.06,0,0,0-.06v-.13s0,0,0-.07,0,0,0-.06,0,0,0-.06,0,0,0-.07v-.12s0,0,0-.07,0,0,0-.06V68.5s0,0,0-.06,0,0,0-.07v-.13s0,0,0-.06v-.06s0,0,0-.07V67.8s0,0,0-.07,0,0,0-.06v-.38s0,0,0-.07,0,0,0-.06v-.07s0,0,0-.06,0,0,0-.06v-.13s0,0,0-.07,0,0,0-.06v-.33s0,0,0-.06v-.14s0,0,0-.06,0-.05,0-.07,0,0,0-.06,0,0,0-.07l0,0a.08.08,0,0,0-.05-.05.13.13,0,0,1,0-.06.15.15,0,0,1,0-.06l0,0,.06,0h.57l.06,0H138l0,0a.09.09,0,0,1,0,0,.08.08,0,0,1,0,.06.09.09,0,0,0,0,.06.19.19,0,0,0,0,.07l0,0s0,0,0,.06,0,0,0,.07v.07a.2.2,0,0,0,0,.07.13.13,0,0,0,0,.06s0,0,0,.07v.39s0,0,0,.06,0,0,0,.07,0,0,0,.06V67s0,0,0,.06v.19s0,0,0,.06,0,0,0,.07v.25s0,0,0,.07,0,0,0,.06V68s0,0,0,.06v.07s0,0,0,.06v.32s0,0,0,.06,0,0,0,.07v.11s0,0,0,.07,0,0,0,.06V69s0,0,0,.06,0,0,0,.06v.13s0,0,0,.07,0,0,0,.06v.13s0,0,0,.06,0,0,0,.06v.14s0,0,0,.07,0,0,0,.06v.39a.2.2,0,0,1,0,.07s0,0,0,.06a.64.64,0,0,1,0,.07.07.07,0,0,0,0,.06s0,0,0,.06,0,0,0,.07l0,0,0,.06a.08.08,0,0,1,0,.06A.43.43,0,0,0,138.17,70.88Z"/><path class="cls-7" d="M142.38,66.34s0,0,0,0l0,0-.06,0-.05,0h-.07l-.05,0h-.2s0,0-.06,0h-.07l-.25,0h-.26s0,0-.06,0a.08.08,0,0,0,0,0l0,0v.12s0,0,0,.06,0,0,0,.07l0,.38s0,0,0,.06,0,0,0,.07l.06.5s0,0,0,.07,0,0,0,.06v.06s0,0,0,.07,0,0,0,.06,0,0,0,.07v.06s0,0,0,.06l0,.32s0,0,0,.07,0,0,0,.06l0,.25s0,0,0,.07v.06s0,0,0,.06l0,.32s0,0,0,.07l0,.12s0,0,0,.07,0,0,0,.06,0,0,0,.06,0,0,0,.07,0,0,0,.06V70s0,0,0,.07,0,0,0,.06l.09.89a.07.07,0,0,1,0,.06s0,.06,0,.08a.07.07,0,0,0,0,.06.13.13,0,0,0,0,.06l0,.06a.15.15,0,0,0,0,.07s0,0,0,0a.1.1,0,0,0,0,0,.07.07,0,0,1,0,.06s0,0,0,0a.1.1,0,0,1,0,.05h-.05l-1.34.14,0,0,0,0,0,0a0,0,0,0,1,0,0l0-.07s0,0,0-.06,0,0,0-.06a.09.09,0,0,1,0-.07v-.06a.19.19,0,0,0,0-.07.16.16,0,0,0,0-.07v-.07a.13.13,0,0,0,0-.06l-.08-.76s0,0,0-.07,0,0,0-.06l0-.26s0,0,0-.06,0,0,0-.06v-.07s0,0,0-.06,0,0,0-.06l0-.2s0,0,0-.06v-.06s0,0,0-.07v-.06s0,0,0-.06,0,0,0-.07,0,0,0-.06,0,0,0-.06V68.8s0,0,0-.06,0,0,0-.07l0-.32s0,0,0-.06,0,0,0-.06V68.1s0,0,0-.06,0,0,0-.07,0,0,0-.06,0,0,0-.07v-.06s0,0,0-.06v-.07s0,0,0-.06l-.05-.51s0,0,0-.06,0,0,0-.07l0-.19s0,0,0-.06,0,0,0-.06a.35.35,0,0,0,0-.06s0,0-.05,0a.09.09,0,0,0-.06,0h-.05s0,0-.08,0h-.12a.16.16,0,0,1-.07,0h-.25l-.06,0-.07,0H139l-.06,0s0,0-.06,0,0,0-.06,0,0,0,0,0l-.05,0s-.05,0-.06,0l0,0,0,0a.09.09,0,0,1,0,0s0,0,0-.07a.13.13,0,0,1,0-.06s0,0,0-.07,0,0,0-.06a.08.08,0,0,1,0-.07s0,0,0-.06,0,0,0-.07,0,0,0-.06,0,0,0-.05V66a.06.06,0,0,0,0-.06.64.64,0,0,1,0-.07s0,0,0-.06a.14.14,0,0,1,0-.07s0,0,0-.06v-.07s0,0,0-.06a.1.1,0,0,1,0,0,.09.09,0,0,1,.06,0h.25s0,0,.06,0h.07l.95-.1h.06s0,0,.07,0l1.09-.11a0,0,0,0,0,.06,0h.06a.08.08,0,0,0,.06,0h.12l.07,0h.06l.06,0s0,0,.06,0,0,0,.06,0l.06,0,0,0s0,0,0,.06a824168546978.38,824168546978.38,0,0,0,0,.12s0,0,0,.06a.64.64,0,0,0,0,.07s0,0,0,.06a.14.14,0,0,0,0,.06s0,0,0,.05a.14.14,0,0,1,0,.07s0,0,0,.06a.14.14,0,0,0,0,.06s0,0,0,.06a.19.19,0,0,0,0,.07.09.09,0,0,0,0,.06.07.07,0,0,0,0,.06s0,0,0,.06A.07.07,0,0,1,142.38,66.34Z"/><path class="cls-7" d="M147.55,69.64a.21.21,0,0,0,0,.06l0,.07,0,.06s0,0,0,0a.11.11,0,0,1,0,.06.42.42,0,0,1,0,.06s0,0,0,.06l0,.06s0,0,0,.06,0,0,0,0l0,0a.09.09,0,0,1,0,.06l0,0s0,0,0,0,0,0,0,0,0,0-.05.05,0,0,0,0l-.06,0s0,0,0,0l-.05,0s0,0,0,.05,0,0,0,0l-.06,0-.05,0-.05,0-.06,0-.05,0-.05,0-.06,0h-.06l-.06,0-.06,0-.06,0s0,0-.06,0l-.06,0-.06,0h-.06l-.06,0h-.06s0,0-.07,0l-.12,0h-.13a.09.09,0,0,1-.07,0,.06.06,0,0,1-.06,0,.09.09,0,0,1-.07,0s0,0-.05,0a.08.08,0,0,1-.07,0s0,0-.07,0a.07.07,0,0,1-.06,0s0,0-.06,0l-.07,0h-.06l-.06,0h-.06l-.07,0h0l-.06,0-.06,0-.05,0-.06,0-.06,0s0,0-.06,0,0,0-.05,0l-.06,0a.06.06,0,0,0,0,0l0,0,0,0-.05,0,0,0a.07.07,0,0,1-.05,0l0,0s0,0,0,0a.09.09,0,0,1,0-.05l0,0,0,0a.09.09,0,0,1,0,0l0,0s0-.05,0-.06l0-.07a.07.07,0,0,0,0,0,.2.2,0,0,0,0-.07s0,0,0-.07v-.06s0,0,0-.07,0,0,0-.06v-.06s0,0,0-.07l0-.2s0,0,0-.06a.14.14,0,0,1,0-.06s0,0,0-.07V69.2s0,0,0-.07v-.07s0,0,0-.06,0,0,0,0,0,0,0-.07l0-.06s0,0,0-.06l-.06-.31s0,0,0-.07l0-.25s0,0,0-.06l0-.19s0,0,0-.07v-.06s0,0,0-.06l0-.06s0,0,0-.07,0,0,0-.06l0-.12s0,0,0-.07,0,0,0-.06,0,0,0-.06,0,0,0-.07l0-.12s0,0,0-.07,0,0,0-.06,0,0,0-.06,0,0,0-.06v-.07s0,0,0-.06v-.06s0,0,0-.06l0-.19s0,0,0-.07v-.06s0,0,0-.06,0,0,0-.07l0-.07s0,0,0-.06l0-.13,0-.06s0,0,0-.06a.14.14,0,0,0,0-.07.14.14,0,0,1,0-.06s0,0,0-.06l0-.06,0,0,0-.05s0,0,0-.06a.11.11,0,0,1,0-.05l0,0s0,0,.05,0l1.32-.23h.06l0,0s0,0,0,0v.06l0,.07a.13.13,0,0,0,0,.06s0,0,0,.06l0,.07a.13.13,0,0,1,0,.06.21.21,0,0,0,0,.08v.06s0,0,0,.06,0,.05,0,.07a.14.14,0,0,1,0,.06s0,0,0,.07,0,0,0,.07l0,.12s0,0,0,.07,0,0,0,.06v.06s0,0,0,.07l0,.12s0,0,0,.06l0,.07s0,0,0,.06,0,0,0,.06,0,0,0,.07l0,.19s0,0,0,.06,0,0,0,.06V67s0,0,0,.06,0,0,0,.06l.07.38s0,0,0,.06,0,0,0,.07l0,.12s0,0,0,.06v.06s0,0,0,.07l.06.31s0,0,0,.07,0,0,0,.06l0,.19s0,0,0,.06,0,0,0,.06l.1.57s0,0,0,.06v.07s0,0,0,.06l0,.25a.07.07,0,0,0,0,.06.14.14,0,0,0,0,.06s0,0,0,0,0,0,0,.06a.21.21,0,0,0,0,.06.13.13,0,0,0,0,0l0,0s0,0,.05,0l.06,0,0,0h.06s0,0,.06,0h.2s0,0,.06,0l.06,0,.06,0s0,0,.05,0l.06,0,0,0a.1.1,0,0,1,0,0l0,0s0,0,0-.06a899092960350.89,899092960350.89,0,0,0,0-.12.07.07,0,0,0,0-.06s0,0,0-.06a.06.06,0,0,0,0-.06s0,0,0-.07l0-.25s0,0,0-.07,0,0,0-.06l0-.19s0,0,0-.06,0,0,0-.06v-.06s0,0,0-.07,0,0,0-.06,0,0,0-.07v-.06s0,0,0-.06,0,0,0-.06,0,0,0-.07,0,0,0-.06,0,0,0-.06l0-.13s0,0,0-.06,0,0,0-.06,0,0,0-.07,0,0,0-.06l0-.12s0,0,0-.07,0,0,0-.06l0-.13s0,0,0-.06,0,0,0-.06l0-.13s0,0,0-.06v-.07s0,0,0-.06l0-.25s0,0,0-.06,0,0,0-.06l-.07-.38s0,0,0-.07,0,0,0-.06v-.06s0,0,0-.07,0,0,0-.06l0-.12s0,0,0-.07,0,0,0-.06l-.06-.32a.14.14,0,0,1,0-.06l0-.14,0-.06a.14.14,0,0,1,0-.06s0,0,0-.06a.14.14,0,0,0,0-.06l0,0a.07.07,0,0,0,0,0,.07.07,0,0,1,0-.06.06.06,0,0,1,0-.06l0,0,.05,0,.5-.09h.07l.06,0,.63-.11h.12l0,0,0,0a.08.08,0,0,1,0,.06.19.19,0,0,0,0,.07.16.16,0,0,0,0,.07l0,0a.15.15,0,0,1,0,.07s0,0,0,.06V65s0,0,0,.06a.16.16,0,0,0,0,.07v.06l.07.39s0,0,0,.06,0,0,0,.07,0,0,0,.06v.06s0,0,0,.07l0,.18s0,0,0,.06,0,0,0,.07l0,.25s0,0,0,.06,0,0,0,.07l0,.25s0,0,0,.06V67s0,0,0,.07l.06.31s0,0,0,.06,0,0,0,.07l0,.11s0,0,0,.06,0,0,0,.07l0,.06s0,0,0,.06,0,0,0,.07l0,.12s0,0,0,.07,0,0,0,.06l0,.13s0,0,0,.06,0,0,0,.06l0,.14a.14.14,0,0,0,0,.06.13.13,0,0,0,0,.06l.07.39a.07.07,0,0,1,0,.06s0,0,0,.06,0,0,0,.06a.11.11,0,0,0,0,.06s0,0,0,.07,0,0,0,.05l0,0,0,.06,0,0S147.54,69.62,147.55,69.64Z"/><path class="cls-7" d="M156.36,68.07a.15.15,0,0,1-.06.05h-.11a.08.08,0,0,0-.06,0h-.07l-.06,0-.06,0-.3.12,0,0h-.05l-.06,0-.06,0-.06,0-1.66.67h0l0,0,0,0a.15.15,0,0,1,0-.06v-.07s0-.05,0-.07,0,0,0-.06a.07.07,0,0,0,0-.06s0,0,0-.07a.25.25,0,0,0,0-.07.14.14,0,0,0,0-.06s0-.05,0-.07l-.05-.11s0,0,0-.07l-.07-.18s0,0,0-.06l0-.11s0,0,0-.06l0-.12s0,0,0-.06,0,0,0-.06l-.15-.35s0,0,0-.06,0,0,0-.06l0-.06s0,0,0-.06,0,0,0-.06,0,0,0-.06,0,0,0-.06,0,0,0-.05,0,0,0-.07,0,0,0,0,0,0,0-.07l-.12-.29s0,0,0-.06,0,0,0-.06l-.24-.59s0,0,0-.06,0,0,0-.06l0-.12s0,0,0,0l-.05-.12s0,0,0-.07l0-.06s0,0,0,0l0-.06s0,0,0-.06l-.05-.11s0,0,0-.06,0,0,0-.06,0,0,0-.06l0,0s0,0,0-.07,0,0,0-.05,0,0,0-.07,0,0,0,0l0-.06s0,0,0-.06,0,0,0-.06,0,0,0-.06,0,0,0-.06a.64.64,0,0,1,0-.07l0-.06s0,0,0-.06l-.05-.05a.07.07,0,0,0,0-.06l0-.06,0-.06,0-.06,0-.05s0,0-.05,0,0,0,0,0l-.06-.05s0,0,0,0,0,0,0-.06a.08.08,0,0,1,0,0l0,0,1.06-.43h.07l0,0,.83-.33.06,0s0,0,.06,0l.17-.07.06,0,.06,0a.08.08,0,0,1,0,0l.05,0s0,0,.06,0h.07l.06,0,.05,0s0,0,0,.05l0,.06,0,0,0,.06a.1.1,0,0,1,0,0l0,.06a.1.1,0,0,1,0,0,.1.1,0,0,0,0,.05l0,0a.07.07,0,0,1,0,0s0,0,.05.05,0,0,0,.06a.1.1,0,0,0,0,.05.09.09,0,0,0,0,.06l0,.05a.1.1,0,0,0,0,0l0,.05s0,0,0,0a.1.1,0,0,1-.05,0h-.24l-.07,0h-.13l-.05,0H154l-.18.07-.06,0s0,0-.06,0h-.06s0,0-.06,0l-.06,0-.06,0-.05,0-.18.07s0,0-.06,0l-.06,0h-.06l-.06,0s0,0-.05,0,0,0,0,0,0,0,0,.06a.13.13,0,0,0,0,.06l.17.4s0,0,0,.06,0,0,0,.06l.16.4,0,.07s0,0,0,0l0,.05,0,0s0,0,.06,0a.08.08,0,0,0,.07,0l.44-.18s0,0,.06,0l.06,0s0,0,0,0l.07,0a.05.05,0,0,1,.05,0l.05,0a.1.1,0,0,0,0,0,.07.07,0,0,0,0,0s0,0,.05,0a0,0,0,0,1,0,0s0,0,.06,0h.05a.13.13,0,0,1,0,.05l.43,1a.06.06,0,0,1,0,.06s0,0,0,0l0,0a.08.08,0,0,1-.07,0h-.26l-.06,0-.07,0h-.06l-.12,0h-.07l0,0h-.07l-.26.11-.06,0s0,0,0,.06,0,0,0,.06a.13.13,0,0,0,0,.06s0,0,0,.06,0,0,0,0l.07.18s0,0,0,.07,0,0,0,.06l0,.06s0,0,0,.06,0,0,0,.06l.07.18s0,0,0,.06,0,0,0,0l.12.3s0,0,0,.06,0,0,0,.07l0,.06s0,0,0,.06a0,0,0,0,0,0,0,.1.1,0,0,0,.05,0l.06,0h.06l.12,0,.06,0s0,0,0,0l.06,0,.05,0,.06,0h.07l.12,0,0,0,.18-.08h.06a.09.09,0,0,1,.06,0l0,0,.06,0,.05,0,.05,0a.1.1,0,0,0,0,0l.06,0s0,0,.05-.05,0,0,0,0a.08.08,0,0,0,0,0l.05,0h.06a.05.05,0,0,1,0,0l0,0s0,0,0,.06a.17.17,0,0,1,0,.07s0,0,0,.06a.08.08,0,0,1,0,.07s0,0,0,.06a.13.13,0,0,0,0,.06.14.14,0,0,0,0,.07.13.13,0,0,0,0,.06s0,0,0,.07a.13.13,0,0,0,0,.06s0,0,0,.05a.15.15,0,0,0,0,.07.07.07,0,0,0,0,.06s0,0,0,.07,0,0,0,.06a.17.17,0,0,1,0,.07s0,0,0,.07Z"/><path class="cls-7" d="M152.64,69.42a.13.13,0,0,1,0,0,.09.09,0,0,1-.05,0l-1.2.33h-.06l-.06,0-.06,0,0-.07s0,0,0-.07a.13.13,0,0,0,0-.06s0,0,0-.06,0,0,0-.06,0,0,0-.06l0-.06a.1.1,0,0,0,0,0l0-.06,0-.06s0,0,0-.06,0,0,0,0a.21.21,0,0,0,0-.06l0,0s0,0,0-.06l0-.06,0,0,0-.05s0,0,0-.06l0-.05,0,0s0,0,0-.06l0,0s0,0,0-.06l0,0,0,0-.07-.11a.13.13,0,0,0,0,0l0-.05s0,0,0-.06l0-.05s0,0,0-.06,0,0,0-.05l-.08,0a.08.08,0,0,0-.07,0,.07.07,0,0,0-.06,0l0,0-.05,0,0,.06s0,0,0,0a.21.21,0,0,0,0,.06s0,0,0,.06,0,0,0,.07,0,0,0,.06L150,69.5l0,.06s0,0,0,.07,0,0,0,.06a.14.14,0,0,1,0,.06.1.1,0,0,1,0,0s0,0,0,.06,0,0,0,0l.05,0,0,.06v.06s0,0,0,0l-.05,0-1.28.35h-.07l0,0s0,0,0,0,0,0,0-.06l0-.14a.11.11,0,0,1,0,0,.16.16,0,0,1,0-.07.15.15,0,0,1,0-.07l0-.07a.08.08,0,0,0,0-.07l0-.06s0,0,0-.06,0,0,0-.06,0,0,0-.07l0-.13s0,0,0-.06,0,0,0-.06l-.1-.36s0,0,0-.06,0,0,0-.07l-.12-.43s0,0,0-.06,0,0,0-.06l-.18-.68s0,0,0-.06,0,0,0-.06l-.14-.5s0,0,0-.06,0,0,0-.06,0,0,0-.06,0,0,0-.06l0-.13s0,0,0-.06l0-.06s0,0,0-.06l-.08-.31s0,0,0-.06,0,0,0-.05l-.07-.25s0,0,0-.06,0,0,0-.06l-.15-.56s0,0,0-.07l0-.06a.13.13,0,0,1,0-.06.09.09,0,0,1,0-.06l0-.06a.36.36,0,0,1,0-.07s0,0,0-.06a.14.14,0,0,0,0-.06s0,0,0,0l0,0,0,0a.13.13,0,0,1,0-.06s0,0,0,0,0,0,0,0a.1.1,0,0,1,.05,0l1.36-.37.07,0h.06l.33-.09h.07s0,0,.06,0h.07l.06,0h.18s.05,0,.07,0h.07s0,0,.06,0h.06l.07,0H150l.06,0h.06l.06,0,.06,0h.06l.06,0s0,0,.06,0l.05,0,.06,0,.06,0s0,0,0,0a.13.13,0,0,0,.06,0s0,0,0,0,0,0,.05,0,0,0,0,0a.21.21,0,0,1,0,.06l.05,0,0,.06s0,0,0,0l0,.06,0,.06s0,0,0,.06a.33.33,0,0,1,0,.06l0,0a.14.14,0,0,1,0,.06s0,0,0,.06,0,0,0,.06V65l0,.12a.16.16,0,0,1,0,.07s0,0,0,.06l0,0a.17.17,0,0,0,0,.07s0,0,0,.06v.07s0,0,0,0,0,0,0,.07a.17.17,0,0,0,0,.07s0,0,0,0l0,.07s0,0,0,.06,0,0,0,.06,0,0,0,.06,0,0,0,.06,0,0,0,.06a.11.11,0,0,1,0,.06s0,0,0,.06,0,0,0,.06l0,0s0,0,0,.06l0,0s0,0,0,.07,0,0,0,0l0,.05s0,0,0,0,0,0,0,.06a.14.14,0,0,0,0,.06s0,0,0,.06,0,0,0,0l0,.06s0,0,0,.06l0,0,.07.12a.17.17,0,0,0,0,.06l0,0,.08.11s0,0,0,.05l.08.11s0,0,0,0l.08.12s0,0,0,0l.11.17,0,0,0,.06,0,.06,0,0,0,.06s0,0,0,.06l0,0a.09.09,0,0,1,0,0s0,0,0,.06,0,0,0,0l0,.06,0,.06,0,.06,0,0,0,.06s0,0,0,0,0,0,0,.06a.09.09,0,0,1,0,0s0,0,0,0l.05.06s0,0,0,0a.1.1,0,0,0,0,0l0,0s0,0,0,0l.05,0,0,0,.06,0a0,0,0,0,1,0,0A.11.11,0,0,1,152.64,69.42Zm-2.58-3.83,0-.06s0,0,0-.06l0-.12s0,0,0-.07a.09.09,0,0,1,0,0s0,0,0-.06a.21.21,0,0,0,0-.06.07.07,0,0,0,0,0l0,0,0,0-.06,0,0,0-.07,0h-.19a.16.16,0,0,0-.07,0s0,0-.06,0l-.07,0s0,0-.06,0l-.23.06s0,0-.05,0l0,0s0,0,0,.06,0,0,0,.06l.11.38s0,0,0,.06,0,0,0,.06l.31,1.13s0,0,0,0,0,0,0,0l0,0h.06a.06.06,0,0,0,.05,0l0,0,.05,0s0,0,0,0,0,0,0-.06,0,0,0,0l0,0,.05,0,0-.06s0,0,.05,0a.07.07,0,0,1,0-.05s0,0,0-.06l0,0a.11.11,0,0,0,0-.06s0,0,0,0,0,0,0-.06a.08.08,0,0,1,0-.06.35.35,0,0,1,0-.06s0,0,0-.06,0,0,0-.07a.15.15,0,0,0,0-.06v-.06a.17.17,0,0,1,0-.07S150.07,65.62,150.06,65.59Z"/><path class="cls-4" d="M117.93,56.13c-.18,0-3.21,2.21-3.21,2.21a7.21,7.21,0,0,0,2.8,1.08h0a17.34,17.34,0,0,0,.47-2.67c0-.35.09-.62-.07-.62Z"/><path class="cls-4" d="M94.46,64c-1.22-.32-1.45-3.05-4.26-4.05a12.53,12.53,0,0,0-4-.58,21,21,0,0,0-4.42.47c1.22,3.81,2.94,4.75,5.72,5,1.4.11,3.33.16,5,.16a13.45,13.45,0,0,0,3-.16C95.58,64.55,95.68,64.27,94.46,64Z"/><path class="cls-4" d="M115.5,27.56v.08a.35.35,0,0,0,0,.06s0,.05,0,.07,0,0,0,.06a.15.15,0,0,1,0,.07s0,0,0,.07a.07.07,0,0,1,0,.06s0,0,0,.06a.13.13,0,0,0,0,.06s0,0,0,.07,0,0,0,.07l0,.06v.07a.13.13,0,0,0,0,.06s0,0,0,.07,0,0,0,.07a.13.13,0,0,1,0,.06s0,0,0,.06,0,0,0,.06,0,0,0,.07v.07a.13.13,0,0,0,0,.06l0,.07a.07.07,0,0,1,0,.06s0,0,0,.07a.15.15,0,0,0,0,.07l0,.05v.07l0,.06a.15.15,0,0,1,0,.07s0,0,0,.07,0,0,0,.06,0,0,0,.07,0,0,0,.07l0,.06v.07a.13.13,0,0,0,0,.06.42.42,0,0,1,0,.06.13.13,0,0,1,0,.06s0,0,0,.07,0,0,0,.07v.06a.2.2,0,0,0,0,.07.15.15,0,0,0,0,.07l0,.06a.2.2,0,0,1,0,.07.07.07,0,0,0,0,.05s0,0,0,.07a.13.13,0,0,1,0,.06s0,0,0,.07v.07l0,.06V31a.15.15,0,0,0,0,.07l0,.06s0,0,0,.07,0,0,0,.06,0,0,0,.06l0,.06a.15.15,0,0,1,0,.07.2.2,0,0,1,0,.07s0,0,0,.06a.15.15,0,0,1,0,.07s0,0,0,.07l0,.06v.07l0,.05V32a.07.07,0,0,0,0,.06.2.2,0,0,0,0,.07l0,.07s0,0,0,.06a.2.2,0,0,0,0,.07s0,0,0,.07a.13.13,0,0,0,0,.06l0,.06a.07.07,0,0,0,0,.06s0,0,0,.07a.2.2,0,0,1,0,.07.13.13,0,0,1,0,.06.19.19,0,0,1,0,.07s0,0,0,.06a.2.2,0,0,0,0,.07s0,0,0,.05a.64.64,0,0,1,0,.07.25.25,0,0,1,0,.07s0,0,0,.05,0,0,0,.07,0,0,0,0a.33.33,0,0,0,0,.06.08.08,0,0,1,0,0,.11.11,0,0,0,0,.06.13.13,0,0,0,0,.06s0,0,0,0l0,0h1.37l0,0s0,0,.06,0l0,0s0,0,0-.06l0-.06s0-.05,0-.07,0,0,0-.06v-.07s0,0,0-.07v-.06s0,0,0-.07a.11.11,0,0,1,0-.07v-.06a.22.22,0,0,0,0-.08s0,0,0-.06,0-.05,0-.07,0,0,0-.06a.13.13,0,0,0,0-.06s0,0,0-.06a.13.13,0,0,0,0-.06s0,0,0-.06a.13.13,0,0,1,0-.08l.06,0,.08,0h1l.07,0,.07,0s0,.05,0,.08,0,0,0,.06l0,.06v.06l0,.06s0,0,0,.06,0,0,0,.07v.06a.13.13,0,0,1,0,.08s0,0,0,.06,0,.05,0,.07v.07s0,0,0,.06,0,0,0,.07a.2.2,0,0,1,0,.07.13.13,0,0,1,0,.06.1.1,0,0,1,0,.07l0,0a.09.09,0,0,0,0,.07s0,0,0,0,0,0,.06,0l.05,0h1.43a.11.11,0,0,0,0-.05.13.13,0,0,0,0-.06.13.13,0,0,0,0-.05l0,0s0,0,0-.06l0,0,0-.07s0,0,0-.05a.25.25,0,0,1,0-.07l0-.07s0,0,0-.05a.2.2,0,0,0,0-.07s0,0,0-.06a.17.17,0,0,1,0-.07s0,0,0-.06v-.07a.15.15,0,0,1,0-.07l0,0s0,0,0-.07,0,0,0-.06a.15.15,0,0,0,0-.07s0,0,0-.07v-.06l0-.07a.2.2,0,0,0,0-.07s0,0,0-.06l0-.07s0,0,0-.05,0,0,0-.07a.13.13,0,0,0,0-.06.2.2,0,0,1,0-.07l0-.07a.13.13,0,0,0,0-.06s0,0,0-.07a.15.15,0,0,1,0-.07.11.11,0,0,1,0,0l0-.07v-.06a.2.2,0,0,1,0-.07l0-.06V31l0-.07a.13.13,0,0,0,0-.06s0,0,0-.07,0,0,0-.07,0,0,0-.05,0,0,0-.07l0-.06V30.5l0-.06s0,0,0-.07a.15.15,0,0,1,0-.07s0,0,0-.06,0,0,0-.07l0-.07V30a.42.42,0,0,1,0-.06s0,0,0-.06,0,0,0-.07a.13.13,0,0,1,0-.06l0-.07s0,0,0-.07a.07.07,0,0,0,0-.06l0-.07a.2.2,0,0,0,0-.07s0,0,0-.05,0,0,0-.07a.13.13,0,0,0,0-.06.15.15,0,0,0,0-.07s0,0,0-.07a.13.13,0,0,1,0-.06.08.08,0,0,1,0-.07l0-.06a.15.15,0,0,0,0-.07.2.2,0,0,0,0-.07s0,0,0-.05a.15.15,0,0,1,0-.07l0-.06a.15.15,0,0,0,0-.07.11.11,0,0,0,0-.07v-.06l0-.07s0,0,0-.06,0,0,0-.07a.15.15,0,0,1,0-.07s0,0,0-.06a.42.42,0,0,1,0-.06s0,0,0-.06a.2.2,0,0,1,0-.07.09.09,0,0,1,0-.07s0,0,0-.06V27.7a.2.2,0,0,1,0-.07v-.2a.15.15,0,0,1,0-.07v-.07a.14.14,0,0,1,0-.06.21.21,0,0,1,0-.07.07.07,0,0,0,0-.05s0,0,0-.06l0,0h-2l0,0,0,.06a.07.07,0,0,0,0,.06s0,0,0,.06a.13.13,0,0,1,0,.06.2.2,0,0,1,0,.07s0,0,0,.07Zm.6,3.38,0-.06v-.07a.15.15,0,0,0,0-.07l0-.06v-.07l0-.06s0,0,0-.07,0,0,0-.07v-.06l0-.07V30.2l0-.06s0,0,0-.07a.13.13,0,0,0,0-.06.2.2,0,0,0,0-.07.15.15,0,0,0,0-.07.13.13,0,0,0,0-.06s0,0,0-.07a.08.08,0,0,0,0-.07s0,0,0-.06v-.07l0-.06v-.07s0,0,0-.07,0,0,0-.06,0,0,0-.07v-.06l0-.07V29s0,0,0-.06,0,0,0-.07a.13.13,0,0,1,0-.06.15.15,0,0,1,0-.07.2.2,0,0,1,0-.07.13.13,0,0,1,0-.06v-.07a.07.07,0,0,1,.06,0,0,0,0,0,1,0,0,.15.15,0,0,1,0,.07.13.13,0,0,1,0,.06v.07s0,0,0,.07a.07.07,0,0,0,0,.06.2.2,0,0,0,0,.07s0,0,0,.06,0,0,0,.07a.15.15,0,0,1,0,.07s0,0,0,.06a.15.15,0,0,0,0,.07s0,0,0,.06v.07s0,0,0,.07a.13.13,0,0,1,0,.06s0,0,0,.07a.07.07,0,0,0,0,.06v.07a.15.15,0,0,1,0,.07l0,.06a.15.15,0,0,0,0,.07V30l0,.06a.2.2,0,0,0,0,.07s0,0,0,.06a.25.25,0,0,1,0,.08.08.08,0,0,1,0,.07s0,0,0,.06,0,0,0,.07a.15.15,0,0,1,0,.07s0,0,0,.06a.2.2,0,0,0,0,.07.13.13,0,0,0,0,.06s0,0,0,.07l0,.07v.06s0,.06,0,.08,0,0,0,.05a.08.08,0,0,1,0,.05l-.07,0h-.61a.13.13,0,0,1-.06-.05l0-.05Z"/><path class="cls-4" d="M120.25,33a.1.1,0,0,1,0,0l.06.05,0,0,.06,0,0,0,0,0,0,0,.06,0,0,0,.06,0,.06,0s0,0,.06,0l.07,0,.05,0,.07,0h0l.07,0,.06,0,.07,0h.46a.1.1,0,0,0,.07,0h.32a.07.07,0,0,0,.06,0h.14l.06,0h.06l.06,0h.14a.09.09,0,0,1,0,0l.07,0,.05,0,.07,0s0,0,0,0l.06,0,.06,0,0,0,.07,0,0,0,0,0s.05,0,.06-.05l.05,0,.06,0a.25.25,0,0,0,0-.07.11.11,0,0,0,0-.08l0,0a.19.19,0,0,1,0-.07l0-.05a.14.14,0,0,0,0-.07v-.07a.14.14,0,0,1,0-.06v-.07a.13.13,0,0,1,0-.06v-.07s0,0,0-.07v-.19s0,0,0-.07,0,0,0-.07V32s0,0,0-.07,0,0,0-.07v-.06s0,0,0-.07,0,0,0-.06v-.4s0,0,0-.07v-.06s0,0,0-.07,0,0,0-.06,0,0,0-.07,0,0,0-.07,0,0,0-.06,0-.05,0-.07,0,0,0-.08a.13.13,0,0,0,0-.06V30.5a.13.13,0,0,1,0-.06v-.07a.17.17,0,0,0,0-.07s0,0,0-.06a.14.14,0,0,1,0-.07.2.2,0,0,1,0-.07l0-.06a.33.33,0,0,1,0-.06.12.12,0,0,0,0-.12l0,0-.06,0h-1.33a.08.08,0,0,0,0,0s0,0,0,.06a.06.06,0,0,0,0,.05.33.33,0,0,0,0,.06l0,.06,0,.06a.15.15,0,0,0,0,.08s0,0,0,.06v.07a.15.15,0,0,1,0,.07v.06s0,.05,0,.07a.16.16,0,0,0,0,.07v.47a.43.43,0,0,0,0,.05s0,.05,0,.07v.53s0,0,0,.06,0,.05,0,.07V32s0,0,0,.07,0,0,0,.06v.25s0,0,0,.05v.06a.11.11,0,0,1,0,.06.13.13,0,0,1-.05.06s0,0,0,0h-.26l-.07,0h-.06l-.06,0-.06,0,0,0a.15.15,0,0,1-.07-.05l0,0-.06,0a.21.21,0,0,0,0-.06.11.11,0,0,0,0,0,.33.33,0,0,0,0-.06l0,0a.15.15,0,0,0,0-.06s0,0,0-.06a.33.33,0,0,1,0-.06l0-.05s0,0,0-.07l0,0,0-.07a.2.2,0,0,0,0-.07s0,0,0-.05a.11.11,0,0,0,0-.07.13.13,0,0,0,0-.06s0-.05,0-.07a.25.25,0,0,0,0-.07.09.09,0,0,0,0-.05.17.17,0,0,0,0-.07v-.06s0-.05,0-.07,0,0,0-.07,0,0,0-.06a.1.1,0,0,1,0-.07.13.13,0,0,1,0-.06v-.14s0,0,0-.06v-.13s0-.05,0-.07v-.13s0-.05,0-.07,0,0,0-.07,0,0,0-.06v-.27a.13.13,0,0,0,0-.06s0-.05,0-.07a.07.07,0,0,1,0-.06s0-.05,0-.07a.09.09,0,0,0,0-.07v-.06a.17.17,0,0,0,0-.07.14.14,0,0,1,0-.06.15.15,0,0,1,0-.07.2.2,0,0,1,0-.07v-.06s0,0,0-.06,0,0,0-.06a.14.14,0,0,1,0-.07s0,0,0-.07l0,0a.19.19,0,0,0,0-.07l0-.05s0-.05,0-.07l0-.05,0-.07a.09.09,0,0,0,0-.06l0-.05,0,0,0-.06,0,0s0,0,.06-.05l0,0,.06-.05,0,0,.06,0,.05,0s0,0,.07,0l.06,0h.46l.06,0h.07l.06,0,.06,0,.07,0,0,0,.06,0,0,0,.06,0s0,0,0,0l.06.05,0,0,0,0s0,0,.06,0h.06a.1.1,0,0,0,.06,0,.13.13,0,0,0,0-.06s0,0,0-.07V28.1a.2.2,0,0,0,0-.07V27.9a.15.15,0,0,1,0-.07.13.13,0,0,0,0-.06s0,0,0-.06a.13.13,0,0,1,0-.06v-.07a.13.13,0,0,1,0-.06v-.07a.08.08,0,0,1,0-.07s0,0,0-.05,0,0,0-.07a.13.13,0,0,1,0-.06.15.15,0,0,0,0-.07v-.07a.07.07,0,0,0,0,0,.05.05,0,0,0,0,0s-.05,0-.06,0a.09.09,0,0,0,0,0l-.07,0-.06,0h-.14l-.06,0h-.07l-.07,0h-.73a.16.16,0,0,1-.07,0h-.07l-.06,0a.1.1,0,0,0-.07,0h-.13l-.07,0-.05,0-.07,0h-.06l-.07,0-.05,0-.07,0-.06,0,0,0-.06,0,0,0-.06,0,0,0-.06.06,0,0-.06.05,0,0,0,.05s0,0-.06.05,0,0,0,.06,0,0,0,.05l0,.05s0,0,0,.06l-.05.05a.33.33,0,0,0,0,.06l0,.06a.11.11,0,0,0,0,.06l0,.05,0,.06a.14.14,0,0,0,0,.06s0,0,0,.06a.64.64,0,0,0,0,.07s0,0,0,.06,0,.05,0,.07a.08.08,0,0,0,0,.05s0,.05,0,.07a.64.64,0,0,0,0,.07.13.13,0,0,1,0,.06s0,.05,0,.07l0,.05a.17.17,0,0,1,0,.07.09.09,0,0,1,0,.06.15.15,0,0,1,0,.07.2.2,0,0,1,0,.07.13.13,0,0,1,0,.06v.07a.25.25,0,0,1,0,.07s0,0,0,.06,0,0,0,.07v.06s0,.05,0,.07,0,0,0,.07v.13s0,0,0,.06V30a.07.07,0,0,1,0,.06v.47s0,0,0,.06,0,.05,0,.07,0,0,0,.06,0,.05,0,.07,0,0,0,.07V31a.13.13,0,0,1,0,.06.2.2,0,0,1,0,.07v.07a.13.13,0,0,1,0,.06s0,.05,0,.07a.13.13,0,0,0,0,.06s0,.05,0,.07,0,.05,0,.07,0,0,0,.06a.08.08,0,0,0,0,.07.2.2,0,0,0,0,.07s0,0,0,.06a.19.19,0,0,1,0,.07s0,0,0,.05,0,0,0,.07,0,0,0,.06a.14.14,0,0,0,0,.07s0,.05,0,.06,0,0,0,.06l0,.07s0,0,0,0l0,.07s0,0,0,0a.64.64,0,0,0,0,.07s0,0,0,.06,0,0,0,0l0,.06a.1.1,0,0,0,0,.05s0,0,0,.06,0,0,0,.05,0,0,0,.06Z"/><path class="cls-4" d="M124.83,32.64v.08s0,0,0,.06v.13s0,.05,0,.07a.2.2,0,0,1,0,.07,356306596430.84,356306596430.84,0,0,1,0,.14.2.2,0,0,1,0,.07.07.07,0,0,1,0,.05.14.14,0,0,1,0,.07l0,.06a.11.11,0,0,0,0,.06l0,0,0,.05h2.94l.07,0,.06,0s0-.05,0-.07,0,0,0-.06,0,0,0-.07a.64.64,0,0,0,0-.07.13.13,0,0,1,0-.06.11.11,0,0,1,0-.07s0,0,0-.05,0,0,0-.07a.64.64,0,0,0,0-.07.13.13,0,0,1,0-.06.17.17,0,0,1,0-.07.13.13,0,0,1,0-.06s0,0,0-.07a.15.15,0,0,0,0-.07s0,0,0-.06,0,0,0-.07a.64.64,0,0,0,0-.07.06.06,0,0,0,0,0s0,0,0,0l-.07,0-.05,0-.06,0s0,0,0,0l-.07,0h-.07s0,0-.06,0H126.2l0,0a.21.21,0,0,1,0-.06.08.08,0,0,1,0,0s0,0,0-.07v-.07s0,0,0-.07,0,0,0-.07v-.33s0,0,0-.07,0,0,0-.06v-.2s0,0,0-.07,0,0,0-.06v-.07s0,0,0-.07,0,0,0-.07v-.2s0,0,0-.07,0,0,0-.06,0-.05,0-.06a.1.1,0,0,1,0,0l0-.05H127a.07.07,0,0,0,.06,0l.07,0,.07,0,.05,0s0,0,.06,0l.06,0,.06,0s0,0,0-.05a.08.08,0,0,0,0,0V29.5a.17.17,0,0,0,0-.07l0,0-.06,0,0,0s0,0-.07,0l-.06,0s0,0-.06,0l-.07,0h-.83l-.07,0s0,0,0,0a.09.09,0,0,1,0-.06.07.07,0,0,1,0-.05s0,0,0-.07,0,0,0-.06V28.8s0,0,0-.06,0,0,0-.07v-.45a.07.07,0,0,1,0,0,.09.09,0,0,1,0-.06s0,0,0,0h1.38l.06,0h.07l.06,0,.06,0,.06,0,0,0H128l0,0v-.06a.13.13,0,0,1,0-.06.25.25,0,0,1,0-.07.17.17,0,0,1,0-.07.13.13,0,0,1,0-.06.11.11,0,0,1,0-.07.14.14,0,0,1,0-.07.14.14,0,0,0,0-.06s0-.05,0-.06a.13.13,0,0,1,0-.06s0-.05,0-.07a.2.2,0,0,0,0-.07.07.07,0,0,0,0-.06s0-.05,0-.07,0,0,0-.06a.64.64,0,0,0,0-.07s0,0,0-.07l0-.05a.1.1,0,0,0,0,0l-.06,0h-.14s0,0,0,0h-2.71l-.06,0a0,0,0,0,0,0,0s0,.05,0,.06a.07.07,0,0,0,0,.05s0,.05,0,.07a.1.1,0,0,0,0,.05.64.64,0,0,0,0,.07.25.25,0,0,0,0,.07.13.13,0,0,0,0,.06v.08a.15.15,0,0,1,0,.07s0,0,0,.06,0,0,0,.07,0,0,0,.06,0,.05,0,.07,0,.05,0,.08,0,0,0,.06,0,0,0,.07,0,0,0,.07,0,0,0,.06v.07s0,0,0,.06,0,0,0,.07,0,0,0,.07,0,0,0,.06v.07s0,0,0,.06,0,0,0,.07,0,0,0,.07V29s0,0,0,.06v.07s0,0,0,.07v.06s0,0,0,.07v.13s0,0,0,.07v.13s0,0,0,.06,0,0,0,.07v.66s0,0,0,.07,0,0,0,.06v.33s0,0,0,.07,0,0,0,.07,0,0,0,.06,0,0,0,.07,0,0,0,.07,0,0,0,.06,0,0,0,.07,0,0,0,.06v.07s0,0,0,.07,0,0,0,.06V32s0,0,0,.06,0,0,0,.07v.13s0,0,0,.07v.12s0,0,0,.07Z"/><path class="cls-4" d="M130,33.61h1a.08.08,0,0,0,.07,0h.05l.07,0h.07l.06,0h.07l.07,0,.05,0,.07,0,.06,0,.06,0h.06s0,0,.06,0l.05,0,.07,0,.06,0a.1.1,0,0,0,0,0l.06,0,.05,0a.09.09,0,0,1,.06,0s0,0,0,0a.12.12,0,0,0,.05,0l.06,0,0-.05a.12.12,0,0,0,0,0l0,0a.1.1,0,0,0,0-.06l0,0a.1.1,0,0,0,0-.05l0,0,0-.06,0,0s0,0,0-.06l0-.06a.33.33,0,0,0,0-.06s0,0,0-.05l0-.07s0,0,0,0a.16.16,0,0,1,0-.06.15.15,0,0,0,0-.07l0-.06s0,0,0-.06a.14.14,0,0,1,0-.06s0-.05,0-.07,0,0,0-.06a.08.08,0,0,1,0-.07.39.39,0,0,1,0-.06.13.13,0,0,1,0-.06s0-.05,0-.07a.13.13,0,0,0,0-.06.2.2,0,0,0,0-.07.25.25,0,0,1,0-.07v-.06a.15.15,0,0,1,0-.06V31.1a.11.11,0,0,0,0-.07V31s0,0,0-.06,0,0,0-.07v-.06s0-.05,0-.07v-.07s0,0,0-.06v-.13s0-.05,0-.07V30.3h0V30s0,0,0-.06v-.2s0-.05,0-.07v-.06s0,0,0-.06v-.07s0,0,0-.06a.17.17,0,0,0,0-.07s0,0,0-.06,0-.05,0-.07a.2.2,0,0,0,0-.07.14.14,0,0,0,0-.06.17.17,0,0,0,0-.07.07.07,0,0,0,0,0,.15.15,0,0,0,0-.07s0,0,0-.07,0,0,0-.06,0,0,0-.06l0-.06a.11.11,0,0,0,0-.07.17.17,0,0,0,0-.05.14.14,0,0,0,0-.07.14.14,0,0,0,0-.06s0,0,0-.06l0-.06,0-.06,0-.06,0-.05,0-.06,0-.05a.15.15,0,0,1,0-.06s0,0,0,0,0-.05,0-.06,0,0,0,0,0-.05,0-.06a.1.1,0,0,0,0,0l-.05,0a.1.1,0,0,0,0-.06l0,0,0-.05-.06,0-.05,0-.06,0,0,0-.06,0-.07,0-.05,0s0,0-.06,0l-.06,0-.06,0-.06,0h-.07l-.05,0-.07,0h-.07l-.06,0h-.14l-.05,0H129.2l0,0a.15.15,0,0,0,0,.06.08.08,0,0,0,0,.05l0,.07s0,0,0,.06l0,.06s0,0,0,.07a.13.13,0,0,1,0,.06.11.11,0,0,1,0,.08s0,0,0,.07v.06s0,0,0,.07V28.9s0,0,0,.07v.13s0,0,0,.07v.2s0,0,0,.06v.13s0,0,0,.07v.07s0,0,0,.07,0,0,0,.07v.07s0,0,0,.06,0,0,0,.07,0,0,0,.06,0,0,0,.07,0,0,0,.07v.13s0,0,0,.07v.4s0,0,0,.07,0,0,0,.07V31s0,0,0,.07,0,0,0,.06,0,0,0,.07v.07s0,0,0,.06v.13s0,0,0,.07,0,0,0,.07v.14s0,0,0,.07,0,0,0,.06v.4s0,0,0,.06,0,0,0,.07,0,0,0,.07,0,0,0,.06v.28s0,0,0,.06V33s0,.06,0,.08a.07.07,0,0,1,0,.06.15.15,0,0,1,0,.07.25.25,0,0,1,0,.07.14.14,0,0,1,0,.06s0,0,0,.06l0,.06a.11.11,0,0,0,0,.06.11.11,0,0,0,0,0l0,.05H130Zm.59-1.29v-.07s0,0,0-.06,0,0,0-.07,0,0,0-.08,0,0,0-.06,0,0,0-.07,0,0,0-.06,0,0,0-.07,0,0,0-.07v-.19s0,0,0-.07,0,0,0-.07,0,0,0-.07,0,0,0-.07V31s0,0,0-.07,0,0,0-.07v-.06s0,0,0-.07v-.07s0,0,0-.07v-.13s0,0,0-.07V30.3s0,0,0-.06,0,0,0-.07V30.1s0,0,0-.06,0,0,0-.07V29.9s0,0,0-.07V29.7s0,0,0-.07,0,0,0-.07V29.3s0,0,0-.07,0,0,0-.07v-.07s0,0,0-.07,0,0,0-.06v-.13s0,0,0-.07,0,0,0-.07v-.27s0,0,0-.07,0,0,0-.06v-.07s0,0,0-.07l0,0,.06,0H131l.06,0,.06,0,.06,0,.06,0,.05,0,.06,0s0,0,0,.06,0,0,.05,0,0,0,0,.06l0,0a.13.13,0,0,1,.05.06l0,.05a.16.16,0,0,0,0,.06l0,.06a.11.11,0,0,0,0,.06l0,.07s0,0,0,.05a.14.14,0,0,1,0,.07.09.09,0,0,1,0,.06s0,.05,0,.06a.13.13,0,0,1,0,.06.64.64,0,0,0,0,.07s0,0,0,.07,0,0,0,.06a.1.1,0,0,0,0,.07s0,0,0,.06,0,0,0,.06a.2.2,0,0,0,0,.07v.06a.17.17,0,0,1,0,.07s0,0,0,.06,0,.05,0,.07V30s0,.05,0,.07v.13s0,0,0,.07,0,0,0,.06,0,.05,0,.07v.07s0,0,0,.06v.13a.2.2,0,0,0,0,.07v.13a.17.17,0,0,1,0,.07s0,0,0,.06V31s0,0,0,.07a.43.43,0,0,1,0,0v.07s0,0,0,.06,0,0,0,.07a.25.25,0,0,1,0,.07.13.13,0,0,1,0,.06s0,.05,0,.07l0,.05s0,0,0,.07,0,0,0,.07l0,.05a.64.64,0,0,0,0,.07.08.08,0,0,1,0,.05l0,.07,0,.05a.33.33,0,0,0,0,.06l0,0a.13.13,0,0,1,0,.06l0,0-.05.06s0,0,0,0l-.06,0s0,0-.05.05l-.06,0-.06,0s0,0-.06,0l-.06,0h-.33l-.06,0,0-.06a.13.13,0,0,1,0-.06Z"/><path class="cls-4" d="M138.67,30.55v-.14s0,0,0-.06v-.53a.17.17,0,0,0,0-.07v-.06s0-.05,0-.07v-.07s0,0,0-.06,0,0,0-.07,0,0,0-.06a.15.15,0,0,1,0-.07s0,0,0-.07a.13.13,0,0,1,0-.06s0-.05,0-.07,0,0,0-.07a.13.13,0,0,1,0-.06.19.19,0,0,1,0-.07s0,0,0-.05a.19.19,0,0,1,0-.07.13.13,0,0,0,0-.06l0-.06,0-.07,0,0,0-.07,0-.05,0-.05s0,0,0-.05l0-.06.06,0,0,0a.13.13,0,0,1,.06-.05l0,0,.07,0,0,0h.07l.06,0h.59l.05,0a.09.09,0,0,1,.06,0l.06,0,.06,0,0,0,.06,0s0,0,0,0l.06.05,0,0,0,.05a.07.07,0,0,0,.06,0h.07a.1.1,0,0,0,0,0,.14.14,0,0,0,0-.06v-.07s0,0,0-.07a.11.11,0,0,0,0,0V28s0,0,0-.06,0,0,0-.07v-.07s0,0,0-.06v-.19a.13.13,0,0,1,0-.06s0,0,0-.07,0,0,0-.07,0,0,0-.05v-.07s0,0,0-.06v-.14s0,0,0,0l0-.05h-.05a.09.09,0,0,0-.06,0l-.07,0h-.13l-.06,0h-.15s0,0-.06,0h-.93a.13.13,0,0,0-.08,0h-.05l-.07,0H139l-.07,0a.09.09,0,0,1,0,0l-.07,0-.05,0-.07,0s0,0-.05.05l-.06,0,0,0a.09.09,0,0,0-.06,0l-.05,0-.06,0,0,.05-.05,0a.08.08,0,0,0,0,.05l-.05,0s0,0,0,.06l0,.05-.05,0s0,.05,0,.07l0,0a.16.16,0,0,1-.05.06.64.64,0,0,0,0,.07l0,.05a.21.21,0,0,1,0,.07s0,0,0,.05a.19.19,0,0,1,0,.07s0,0,0,.05,0,.05,0,.07a.17.17,0,0,0,0,.05l0,.07a.2.2,0,0,1,0,.07s0,0,0,.06,0,0,0,.06,0,0,0,.06,0,0,0,.07a.15.15,0,0,0,0,.07s0,0,0,.06a.17.17,0,0,1,0,.07.13.13,0,0,1,0,.06.15.15,0,0,1,0,.07.11.11,0,0,1,0,.07.13.13,0,0,1,0,.06v.07s0,0,0,.07a.13.13,0,0,0,0,.06v.07s0,0,0,.06a.25.25,0,0,0,0,.07v.13a.17.17,0,0,1,0,.07v.33s0,0,0,.06v.07s0,0,0,.07,0,0,0,.06v.07s0,0,0,.07,0,0,0,.06,0,.05,0,.07v.13s0,0,0,.07a.13.13,0,0,0,0,.06V31s0,0,0,.06v.07s0,0,0,.07v.06a.17.17,0,0,1,0,.07s0,0,0,.06,0,.05,0,.07a.1.1,0,0,0,0,.07.13.13,0,0,0,0,.06v.07a.64.64,0,0,1,0,.07s0,0,0,.06a.17.17,0,0,1,0,.07s0,0,0,.06a.15.15,0,0,0,0,.07.05.05,0,0,0,0,0,.2.2,0,0,1,0,.07.19.19,0,0,1,0,.07s0,0,0,.06a.64.64,0,0,0,0,.07l0,0a.2.2,0,0,1,0,.07s0,0,0,.06l0,.06s0,0,0,.06l0,.05,0,.06s0,0,0,.06l.05.06,0,0,0,.05s0,0,0,0l0,.06s0,0,0,0a.12.12,0,0,1,.05,0,.11.11,0,0,0,.05,0s0,0,0,0a.13.13,0,0,0,.06.05l0,0,.06,0,.05,0,.07,0,.05,0,.06,0,.06,0,.07,0,0,0H139a.09.09,0,0,0,.07,0l.06,0h.07l.05,0h.33a.08.08,0,0,1,.07,0H140a.07.07,0,0,1,.06,0h.07l.07,0h.4l.07,0,.06,0h.05l0,0a.11.11,0,0,0,0-.06v-.13s0,0,0-.07,0,0,0-.05a.15.15,0,0,0,0-.07v-.06s0,0,0-.07V33s0,0,0-.06V32.9s0,0,0-.06,0,0,0-.07a.13.13,0,0,1,0-.06s0,0,0-.07,0,0,0-.07a.13.13,0,0,1,0-.06v-.19a.16.16,0,0,0,0-.07l-.05,0h-.07a.1.1,0,0,0-.05,0,.22.22,0,0,0-.06,0l0,0-.06,0,0,.05-.06,0,0,0-.06,0-.06,0-.06,0-.06,0a.08.08,0,0,0-.06,0h-.52l-.06,0h-.07l-.06,0-.06,0,0,0-.06,0-.05,0,0,0,0,0a.08.08,0,0,1,0-.05s0,0,0,0a.13.13,0,0,1,0-.06s0,0-.05,0,0-.05,0-.07,0,0,0-.05l0-.07s0,0,0-.05a.64.64,0,0,0,0-.07l0-.05a.15.15,0,0,0,0-.07.13.13,0,0,0,0-.07s0,0,0-.06,0-.05,0-.07,0,0,0-.07,0,0,0-.06,0-.05,0-.07,0,0,0-.06,0-.05,0-.07V31s0-.05,0-.07v-.06s0-.05,0-.07v-.07s0,0,0-.06Z"/><path class="cls-4" d="M143.08,27.56v.08a.35.35,0,0,0,0,.06s0,.05,0,.07,0,0,0,.06a.15.15,0,0,1,0,.07s0,0,0,.07a.13.13,0,0,1,0,.06s0,0,0,.06a.13.13,0,0,0,0,.06s0,0,0,.07,0,0,0,.07l0,.06v.07a.13.13,0,0,0,0,.06s0,0,0,.07,0,0,0,.07a.07.07,0,0,1,0,.06s0,0,0,.06,0,0,0,.06,0,0,0,.07v.07a.13.13,0,0,0,0,.06l0,.07a.13.13,0,0,1,0,.06s0,0,0,.07a.08.08,0,0,0,0,.07l0,.05v.07l0,.06a.15.15,0,0,1,0,.07s0,0,0,.07,0,0,0,.06,0,0,0,.07,0,0,0,.07l0,.06v.07a.13.13,0,0,0,0,.06l0,.06a.13.13,0,0,1,0,.06s0,0,0,.07,0,0,0,.07v.06a.11.11,0,0,0,0,.07.15.15,0,0,0,0,.07l0,.06a.2.2,0,0,1,0,.07.07.07,0,0,0,0,.05s0,0,0,.07a.13.13,0,0,1,0,.06s0,0,0,.07v.07l0,.06V31a.15.15,0,0,0,0,.07l0,.06s0,0,0,.07,0,0,0,.06,0,0,0,.06l0,.06a.08.08,0,0,1,0,.07.2.2,0,0,1,0,.07s0,0,0,.06a.15.15,0,0,1,0,.07s0,0,0,.07l0,.06v.07l0,.05V32a.13.13,0,0,0,0,.06.11.11,0,0,0,0,.07l0,.07s0,0,0,.06a.2.2,0,0,0,0,.07s0,0,0,.07a.13.13,0,0,0,0,.06l0,.06a.13.13,0,0,0,0,.06s0,0,0,.07a.2.2,0,0,1,0,.07.13.13,0,0,1,0,.06.19.19,0,0,1,0,.07s0,0,0,.06a.2.2,0,0,0,0,.07s0,0,0,.05a.36.36,0,0,0,0,.07.25.25,0,0,1,0,.07s0,0,0,.05,0,0,0,.07,0,0-.05,0l0,.06a.08.08,0,0,1,0,0,.33.33,0,0,0,0,.06.07.07,0,0,0,0,.06s0,0,0,0a.05.05,0,0,0,0,0h1.37l0,0s0,0,.06,0l0,0s0,0,0-.06l0-.06s0-.05,0-.07,0,0,0-.06v-.07s0,0,0-.07v-.06s0,0,0-.07a.2.2,0,0,1,0-.07v-.06a.22.22,0,0,0,0-.08s0,0,0-.06,0-.05,0-.07,0,0,0-.06a.13.13,0,0,0,0-.06s0,0,0-.06a.13.13,0,0,0,0-.06s0,0,0-.06,0-.05,0-.08l.06,0,.08,0h1l.07,0s.06,0,.07,0,0,.05,0,.08,0,0,0,.06l0,.06v.06l0,.06s0,0,0,.06,0,0,0,.07v.06a.25.25,0,0,1,0,.08s0,0,0,.06,0,.05,0,.07v.07s0,0,0,.06,0,0,0,.07a.2.2,0,0,1,0,.07.13.13,0,0,1,0,.06.17.17,0,0,1,0,.07.09.09,0,0,0,0,0,.09.09,0,0,0,0,.07s0,0,0,0l.06,0,0,0h1.43a.11.11,0,0,0,0-.05.13.13,0,0,0,0-.06.13.13,0,0,0,0-.05l0,0s0,0,0-.06l0,0,0-.07s0,0,0-.05a.25.25,0,0,1,0-.07l0-.07a.17.17,0,0,0,0-.05.11.11,0,0,0,0-.07s0,0,0-.06a.17.17,0,0,1,0-.07s0,0,0-.06v-.07a.15.15,0,0,1,0-.07l0,0s0,0,0-.07,0,0,0-.06a.15.15,0,0,0,0-.07s0,0,0-.07v-.06l0-.07a.2.2,0,0,0,0-.07s0,0,0-.06l0-.07s0,0,0-.05,0,0,0-.07a.13.13,0,0,0,0-.06.2.2,0,0,1,0-.07l0-.07a.13.13,0,0,0,0-.06s0,0,0-.07a.15.15,0,0,1,0-.07.11.11,0,0,1,0,0l0-.07v-.06a.2.2,0,0,1,0-.07l0-.06V31l0-.07a.13.13,0,0,0,0-.06s0,0,0-.07,0,0,0-.07,0,0,0-.05,0,0,0-.07l0-.06V30.5l0-.06s0,0,0-.07a.15.15,0,0,1,0-.07s0,0,0-.06,0,0,0-.07l0-.07V30l0-.06s0,0,0-.06,0,0,0-.07a.13.13,0,0,1,0-.06l0-.07s0,0,0-.07a.13.13,0,0,0,0-.06l0-.07a.2.2,0,0,0,0-.07s0,0,0-.05,0,0,0-.07a.13.13,0,0,0,0-.06.15.15,0,0,0,0-.07s0,0,0-.07a.13.13,0,0,1,0-.06.15.15,0,0,1,0-.07l0-.06a.15.15,0,0,0,0-.07.2.2,0,0,0,0-.07s0,0,0-.05a.15.15,0,0,1,0-.07l0-.06a.15.15,0,0,0,0-.07.2.2,0,0,0,0-.07v-.06l0-.07s0,0,0-.06,0,0,0-.07a.15.15,0,0,1,0-.07s0,0,0-.06l0-.06s0,0,0-.06a.2.2,0,0,1,0-.07.15.15,0,0,1,0-.07s0,0,0-.06V27.7a.2.2,0,0,1,0-.07v-.2a.15.15,0,0,1,0-.07v-.07a.09.09,0,0,1,0-.06.19.19,0,0,1,0-.07.07.07,0,0,0,0-.05s0,0,0-.06l-.05,0h-2s0,0,0,0l0,.06a.13.13,0,0,0,0,.06s0,0,0,.06a.13.13,0,0,1,0,.06.2.2,0,0,1,0,.07s0,0,0,.07Zm.6,3.38,0-.06v-.07a.15.15,0,0,0,0-.07l0-.06v-.07l0-.06s0,0,0-.07,0,0,0-.07v-.06l0-.07V30.2l0-.06s0,0,0-.07a.13.13,0,0,0,0-.06.2.2,0,0,0,0-.07.15.15,0,0,0,0-.07.07.07,0,0,0,0-.06s0,0,0-.07a.15.15,0,0,0,0-.07s0,0,0-.06v-.07l0-.06v-.07s0,0,0-.07,0,0,0-.06,0,0,0-.07v-.06l0-.07V29s0,0,0-.06,0,0,0-.07a.13.13,0,0,1,0-.06.15.15,0,0,1,0-.07.2.2,0,0,1,0-.07.13.13,0,0,1,0-.06v-.07a.07.07,0,0,1,.06,0,0,0,0,0,1,0,0,.15.15,0,0,1,0,.07.13.13,0,0,1,0,.06v.07s0,0,0,.07a.13.13,0,0,0,0,.06.2.2,0,0,0,0,.07s0,0,0,.06,0,0,0,.07a.15.15,0,0,1,0,.07s0,0,0,.06a.15.15,0,0,0,0,.07s0,0,0,.06v.07s0,0,0,.07a.13.13,0,0,1,0,.06s0,0,0,.07a.13.13,0,0,0,0,.06v.07a.15.15,0,0,1,0,.07l0,.06a.15.15,0,0,0,0,.07V30l0,.06a.2.2,0,0,0,0,.07s0,0,0,.06a.25.25,0,0,1,0,.08.15.15,0,0,1,0,.07s0,0,0,.06,0,0,0,.07a.15.15,0,0,1,0,.07s0,0,0,.06a.2.2,0,0,0,0,.07.13.13,0,0,0,0,.06s0,0,0,.07l0,.07v.06s0,.06,0,.08,0,0,0,.05a.08.08,0,0,1-.05.05l-.07,0h-.6a.12.12,0,0,1-.07-.05l0-.05Z"/><path class="cls-4" d="M147.46,33s0,0,0,.07v.07a.2.2,0,0,0,0,.07.14.14,0,0,0,0,.07.17.17,0,0,0,0,.05l-.07.13a.11.11,0,0,0,0,.06l0,0,0,.05h1.49s0,0,0-.05a.11.11,0,0,0,0,0,.17.17,0,0,0,0-.07l0,0s0,0,0-.06l0-.06a.64.64,0,0,0,0-.07.2.2,0,0,0,0-.07s0,0,0-.06a.19.19,0,0,1,0-.08s0,0,0-.07V31.69s0,0,0-.06,0-.05,0-.07a.21.21,0,0,1,0-.06.15.15,0,0,1,.06,0l0,0s0,0,.06-.05l.05,0,0,0a.09.09,0,0,1,.07,0s.05,0,.08,0l.07,0a.15.15,0,0,1,0,.06s0,0,0,.07l0,.06s0,0,0,.06l0,.07a.09.09,0,0,1,0,.05l0,.13,0,.06,0,.07s0,0,0,.06l0,.06s0,0,0,.06l0,.07,0,0s0,0,0,.07l0,.07a.09.09,0,0,0,0,.05l0,.07s0,0,0,.06l0,.06a.36.36,0,0,0,0,.07s0,0,0,.06,0,0,0,.07l0,.06a.15.15,0,0,0,0,.07.14.14,0,0,1,0,.07.07.07,0,0,1,0,.06s0,0,0,.07,0,0,0,.06,0,.05,0,.07,0,0,0,.07,0,.05,0,.06v.08l0,.05s0,0,.06,0h1.35l.06,0a.1.1,0,0,0,0-.05.09.09,0,0,0,0,0,.11.11,0,0,0,0-.06l0,0a.21.21,0,0,1,0-.06l0-.06a.33.33,0,0,1,0-.06l0-.05a.25.25,0,0,1,0-.07s0,0,0-.06l0-.06s0-.05,0-.07a.08.08,0,0,0,0,0s0-.05,0-.07,0,0,0-.06,0-.05,0-.07l0-.06a.13.13,0,0,1,0-.06l0-.07a.13.13,0,0,1,0-.06s0,0,0-.06,0,0,0-.07a.07.07,0,0,0,0,0l0-.07s0,0,0-.06l0-.07,0,0a.11.11,0,0,1,0-.07l0-.07a.11.11,0,0,1,0-.05l-.06-.2s0,0,0-.05l0-.14s0,0,0-.05l-.05-.13a.18.18,0,0,1,0-.06l0-.13,0-.06a.13.13,0,0,1,0-.06l-.05-.14,0-.05s0,0,0-.07l0-.06s0,0,0-.06,0,0,0-.06a.2.2,0,0,1,0-.07s0,0,0-.06l0,0,0,0s0,0,.05,0a.1.1,0,0,1,0-.05l.05-.05,0-.05,0-.05.05,0,0-.05.05-.06,0-.05s0,0,0-.06l0-.06s0,0,0-.05,0,0,0-.06l0-.06a.07.07,0,0,1,0-.06.14.14,0,0,1,0-.06.17.17,0,0,0,0-.07s0,0,0,0a.25.25,0,0,0,0-.07s0,0,0-.07a.09.09,0,0,1,0-.06V29s0,0,0-.06a.2.2,0,0,0,0-.07v-.13s0,0,0-.07a.13.13,0,0,1,0-.06.16.16,0,0,1,0-.07.2.2,0,0,0,0-.07.07.07,0,0,0,0-.06s0-.05,0-.07a.13.13,0,0,1,0-.06.64.64,0,0,0,0-.07.2.2,0,0,0,0-.07s0,0,0-.05,0-.05,0-.07l0-.05a.64.64,0,0,0,0-.07l0,0a.09.09,0,0,0,0-.06l0-.05,0-.06,0-.05a.21.21,0,0,1,0-.06l-.05,0s0,0-.05-.05,0,0,0,0,0,0-.05-.05l0,0-.06,0-.05,0-.06,0,0,0-.07,0,0,0-.07,0-.06,0H150l-.07,0-.06,0h-.19s0,0-.07,0l-.06,0h-2.1l0,0s-.05,0-.06,0a.15.15,0,0,0,0,.06.14.14,0,0,0,0,.06l0,.06,0,.05a.64.64,0,0,0,0,.07.15.15,0,0,1,0,.07.14.14,0,0,1,0,.06.13.13,0,0,0,0,.08s0,0,0,.07a.13.13,0,0,0,0,.06s0,0,0,.07v.06a.22.22,0,0,0,0,.08v.6s0,0,0,.06,0,0,0,.07v.26s0,0,0,.06,0,0,0,.06v.33s0,0,0,.07v.07s0,0,0,.06v.13s0,0,0,.07,0,0,0,.07,0,0,0,.06,0,0,0,.07v.53s0,0,0,.06,0,0,0,.07v.73s0,0,0,.06,0,0,0,.07v.46s0,0,0,.07,0,0,0,.06v.39s0,0,0,.07,0,0,0,.06v.15s0,0,0,.06,0,0,0,.07,0,0,0,.06Zm1.27-4.35v-.41a.11.11,0,0,1,0-.07l0,0,.05,0h.44l.07,0h.07l.06,0,.07,0a.1.1,0,0,0,.05,0l.06,0,0,.05s0,0,.05,0l0,.06,0,.05a.15.15,0,0,1,0,.07.14.14,0,0,1,0,.06.2.2,0,0,1,0,.07.25.25,0,0,0,0,.07s0,0,0,.06v.13s0,.05,0,.07V29s0,0,0,.06a.19.19,0,0,0,0,.07s0,0,0,.06a.14.14,0,0,1,0,.06.25.25,0,0,1,0,.07l0,.05,0,.06,0,.05,0,.06s0,0-.06,0l0,.05,0,0a.09.09,0,0,0-.06,0s0,0,0,0l-.06,0,0,.06-.06,0-.05,0s0,0-.05,0l0,0-.06,0-.06,0h-.05a0,0,0,0,1,0,0h-.06l0-.05a.08.08,0,0,1,0,0,.08.08,0,0,1,0-.06V28.76s0,0,0-.07S148.73,28.66,148.73,28.63Z"/><path class="cls-4" d="M152.51,33.61h2.81l.07,0,.06,0s0-.05,0-.07,0,0,0-.06,0,0,0-.07a.64.64,0,0,0,0-.07.13.13,0,0,1,0-.06.19.19,0,0,1,0-.07s0,0,0-.05,0,0,0-.07a.64.64,0,0,0,0-.07.13.13,0,0,1,0-.06.17.17,0,0,1,0-.07.13.13,0,0,1,0-.06s0,0,0-.07a.15.15,0,0,0,0-.07s0,0,0-.06,0,0,0-.07a.64.64,0,0,0,0-.07.06.06,0,0,0,0,0s0,0,0,0l-.07,0-.06,0,0,0s0,0-.06,0l-.06,0h-.07l-.06,0h-1.37l-.06,0,0-.06a.08.08,0,0,1,0,0s0,0,0-.07v-.07s0,0,0-.07,0,0,0-.07v-.33s0,0,0-.07,0,0,0-.06v-.2s0,0,0-.07,0,0,0-.06v-.07s0,0,0-.07,0,0,0-.07v-.2s0,0,0-.07,0,0,0-.06,0-.05,0-.06l0,0s0,0,.06-.05h.84a.07.07,0,0,0,.06,0l.07,0,.07,0,.05,0,.06,0,.06,0,.06,0s0,0,0-.05a.08.08,0,0,0,0,0V29.5a.17.17,0,0,0,0-.07l0,0-.06,0-.05,0-.07,0-.07,0a.07.07,0,0,1,0,0l-.07,0h-.83l-.07,0s0,0-.06,0a.16.16,0,0,1,0-.06.07.07,0,0,1,0-.05s0,0,0-.07,0,0,0-.06V28.8s0,0,0-.06,0,0,0-.07v-.45a.07.07,0,0,1,0,0,.16.16,0,0,1,0-.06s0,0,.06,0h1.38l.06,0h.07l.05,0,.07,0,.06,0,.05,0h.07l0,0v-.06a.13.13,0,0,1,0-.06.25.25,0,0,1,0-.07.17.17,0,0,1,0-.07.07.07,0,0,1,0-.06.2.2,0,0,1,0-.07.14.14,0,0,1,0-.07.14.14,0,0,0,0-.06s0-.05,0-.06a.13.13,0,0,1,0-.06s0-.05,0-.07a.11.11,0,0,0,0-.07.13.13,0,0,0,0-.06s0-.05,0-.07,0,0,0-.06a.64.64,0,0,0,0-.07s0,0,0-.07l0-.05,0,0a.09.09,0,0,0-.06,0h-.14s0,0,0,0h-2.71l-.06,0a0,0,0,0,0,0,0s0,.05,0,.06a.07.07,0,0,0,0,.05s0,.05,0,.07a.1.1,0,0,0,0,.05.64.64,0,0,0,0,.07.25.25,0,0,0,0,.07.13.13,0,0,0,0,.06v.08a.15.15,0,0,1,0,.07s0,0,0,.06,0,0,0,.07,0,0,0,.06,0,.05,0,.07,0,.05,0,.08,0,0,0,.06,0,0,0,.07,0,0,0,.07,0,0,0,.06v.07s0,0,0,.06,0,0,0,.07,0,0,0,.07,0,0,0,.06v.07s0,0,0,.06,0,0,0,.07,0,0,0,.07V29s0,0,0,.06v.07s0,0,0,.07v.06s0,0,0,.07v.13s0,0,0,.07v.13s0,0,0,.06,0,0,0,.07v.66s0,0,0,.07,0,0,0,.06v.33s0,0,0,.07,0,0,0,.07,0,0,0,.06,0,0,0,.07,0,0,0,.07,0,0,0,.06,0,0,0,.07,0,0,0,.06v.07s0,0,0,.07,0,0,0,.06V32s0,0,0,.06,0,0,0,.07v.13s0,0,0,.07v.12s0,0,0,.07v.21s0,0,0,.06v.13s0,.05,0,.07a.2.2,0,0,1,0,.07,178153298215.2,178153298215.2,0,0,1,0,.14.2.2,0,0,1,0,.07.07.07,0,0,1,0,.05.14.14,0,0,1,0,.07l0,.06a.11.11,0,0,0,0,.06l0,0,0,.05h.13Z"/><path class="cls-4" d="M99.83,32.31l.32-.22c8-5.71,20.67-9.41,34.93-9.41S162,26.38,170,32.09l.31.22L183.28,30l-.22-.24h0a41.8,41.8,0,0,0-9.41-7.87c-10.31-6.45-24-10-38.58-10s-28.27,3.56-38.58,10a41.8,41.8,0,0,0-9.41,7.87h0l-.22.24Zm35.25-19.85c20.19,0,37.82,6.94,47.11,17.2l-11.72,2.07a36.9,36.9,0,0,0-4.16-2.59c-8.34-4.52-19.43-7-31.23-7s-22.88,2.49-31.23,7a36.75,36.75,0,0,0-4.15,2.59L88,29.66C97.26,19.4,114.9,12.46,135.08,12.46Z"/></g></g></g></g></svg>